<?xml version="1.0" encoding="UTF-8" standalone="no"?>
<svg
   xmlns:dc="http://purl.org/dc/elements/1.1/"
   xmlns:cc="http://creativecommons.org/ns#"
   xmlns:rdf="http://www.w3.org/1999/02/22-rdf-syntax-ns#"
   xmlns:svg="http://www.w3.org/2000/svg"
   xmlns="http://www.w3.org/2000/svg"
   xmlns:sodipodi="http://sodipodi.sourceforge.net/DTD/sodipodi-0.dtd"
   xmlns:inkscape="http://www.inkscape.org/namespaces/inkscape"
   version="1.0"
   width="5184"
   height="5184"
   viewBox="0 0 3888 3888"
   preserveAspectRatio="xMidYMid meet"
   id="svg120"
   sodipodi:docname="X.svg"
   inkscape:version="0.92.4 (5da689c313, 2019-01-14)">
  <defs
     id="defs124" />
  <sodipodi:namedview
     pagecolor="#ffffff"
     bordercolor="#666666"
     borderopacity="1"
     objecttolerance="10"
     gridtolerance="10"
     guidetolerance="10"
     inkscape:pageopacity="0"
     inkscape:pageshadow="2"
     inkscape:window-width="1366"
     inkscape:window-height="705"
     id="namedview122"
     showgrid="false"
     units="px"
     inkscape:zoom="0.10339506"
     inkscape:cx="2592"
     inkscape:cy="2592"
     inkscape:window-x="-8"
     inkscape:window-y="-8"
     inkscape:window-maximized="1"
     inkscape:current-layer="svg120" />
  <metadata
     id="metadata10">
Created by potrace 1.10, written by Peter Selinger 2001-2011
<rdf:RDF>
  <cc:Work
     rdf:about="">
    <dc:format>image/svg+xml</dc:format>
    <dc:type
       rdf:resource="http://purl.org/dc/dcmitype/StillImage" />
    <dc:title></dc:title>
  </cc:Work>
</rdf:RDF>
</metadata>
  <g
     transform="matrix(0.30281022,0,0,-0.28697338,-150.36754,11141.306)"
     id="g118"
     style="fill:#4199e1;stroke:none;stroke-width:0.33922976">
    <path
       d="m 6870,38749 c -91,-11 -149,-37 -255,-115 -195,-140 -295,-211 -495,-344 -69,-46 -151,-103 -182,-127 -31,-24 -60,-43 -63,-43 -4,0 -24,-13 -44,-28 -20,-16 -52,-37 -71,-48 -19,-10 -37,-21 -40,-24 -10,-11 -151,-101 -173,-110 -12,-5 -53,-30 -92,-55 -38,-25 -81,-51 -95,-58 -14,-6 -67,-38 -116,-69 -50,-32 -96,-58 -101,-58 -10,0 -117,-54 -138,-70 -5,-4 -44,-25 -85,-48 -41,-22 -104,-56 -140,-76 -36,-20 -87,-48 -115,-62 -27,-14 -90,-47 -140,-74 -142,-76 -508,-257 -655,-323 -30,-14 -86,-39 -125,-57 -114,-52 -206,-93 -260,-115 -84,-35 -265,-109 -300,-122 -57,-22 -114,-43 -160,-60 -22,-8 -65,-26 -95,-40 -30,-14 -68,-30 -85,-34 -49,-14 -188,-64 -212,-77 -12,-7 -31,-12 -42,-12 -11,0 -35,-6 -53,-14 -52,-22 -231,-76 -253,-77 -11,0 -31,-6 -45,-14 -14,-8 -36,-14 -50,-15 -14,0 -45,-6 -70,-14 -150,-49 -221,-68 -270,-72 -30,-3 -71,-11 -90,-19 -19,-7 -64,-18 -100,-23 -150,-25 -273,-60 -299,-87 -26,-25 -26,-28 -34,-238 -14,-384 -18,-1030 -7,-1052 7,-14 11,-776 13,-2365 2,-1919 5,-2351 16,-2380 7,-19 16,-66 21,-105 4,-38 18,-115 30,-170 12,-55 25,-120 29,-145 5,-25 20,-83 34,-130 13,-47 27,-94 30,-105 5,-18 42,-121 101,-280 33,-87 38,-98 158,-340 137,-274 211,-393 344,-545 155,-177 375,-375 484,-434 19,-10 79,-48 134,-85 54,-36 106,-70 115,-76 9,-5 45,-28 81,-50 95,-60 103,-64 130,-76 14,-6 48,-28 77,-50 29,-21 55,-39 58,-39 4,0 25,-13 48,-29 23,-15 60,-38 82,-50 22,-12 54,-30 70,-41 47,-30 69,-43 121,-73 53,-30 67,-38 132,-80 24,-15 60,-36 80,-47 20,-11 46,-26 57,-33 72,-46 112,-69 185,-109 88,-48 146,-82 180,-108 19,-15 42,-30 50,-33 8,-4 29,-16 45,-27 17,-11 37,-23 45,-27 17,-8 207,-118 230,-133 8,-6 22,-13 30,-16 8,-3 29,-12 45,-21 87,-47 134,-73 175,-97 25,-14 52,-29 60,-33 8,-3 44,-25 80,-47 36,-23 83,-50 105,-60 22,-11 83,-46 135,-77 52,-31 122,-71 155,-89 110,-60 120,-66 160,-92 22,-14 72,-42 110,-62 39,-21 77,-41 85,-46 8,-5 56,-32 105,-60 50,-28 97,-55 105,-60 34,-20 389,-218 440,-244 30,-16 86,-47 123,-70 38,-23 94,-55 125,-72 141,-75 198,-107 212,-119 8,-6 41,-26 72,-43 47,-26 69,-32 118,-32 62,0 81,8 240,105 30,19 91,52 135,75 101,52 161,86 205,116 19,12 46,28 60,33 14,6 33,15 43,21 9,5 25,14 35,19 9,5 55,32 102,58 47,27 93,52 103,56 9,3 17,10 17,15 0,5 20,17 44,26 25,9 50,24 56,32 7,7 19,14 27,14 7,0 26,8 41,19 74,52 140,90 164,96 15,4 29,13 32,21 3,8 12,14 21,14 8,0 41,14 73,32 50,28 77,44 157,96 11,7 39,22 62,33 23,11 45,23 47,28 3,5 18,12 33,16 15,3 43,19 62,34 41,31 125,78 191,106 25,11 77,38 115,60 39,23 77,44 85,48 8,4 24,13 35,20 11,7 52,30 90,52 39,22 79,45 90,52 11,7 27,16 35,20 34,16 217,127 240,145 41,31 100,68 110,68 5,0 47,24 92,53 46,29 117,70 158,91 41,21 82,45 91,52 14,13 53,35 144,85 22,12 54,32 70,44 17,13 60,39 97,58 37,20 86,50 109,67 23,16 46,30 51,30 5,0 21,8 36,18 44,31 145,95 173,112 32,18 103,64 141,91 15,10 33,19 41,19 7,0 37,17 65,38 29,20 87,59 130,87 42,27 85,56 95,65 11,8 38,26 61,40 135,79 221,149 373,302 89,90 174,179 188,198 14,19 49,67 78,105 104,138 167,246 265,453 7,15 17,34 23,42 24,39 87,183 99,230 7,25 21,57 31,71 10,15 19,34 19,43 0,9 6,27 14,39 8,12 17,41 21,64 4,24 11,45 16,49 5,3 9,18 9,33 0,25 46,188 71,249 5,13 9,39 9,58 0,41 19,125 31,138 5,6 9,33 9,60 0,28 7,74 16,101 11,33 19,112 24,230 4,110 13,203 23,240 15,54 16,321 17,2841 0,2214 -3,2784 -12,2791 -7,6 -51,15 -98,21 -47,6 -105,16 -130,22 -25,7 -86,17 -136,25 -50,7 -101,18 -112,24 -11,6 -43,11 -71,11 -28,0 -108,16 -178,36 -163,45 -267,73 -318,84 -22,5 -71,18 -110,30 -38,11 -79,23 -90,26 -39,10 -221,67 -290,91 -38,14 -83,28 -100,33 -49,14 -119,39 -137,50 -10,6 -24,10 -32,10 -8,0 -27,6 -43,14 -15,8 -66,29 -113,46 -113,42 -159,59 -195,75 -16,7 -55,23 -85,35 -30,12 -59,26 -65,31 -5,5 -15,9 -22,9 -12,0 -53,18 -188,80 -22,10 -71,33 -110,50 -100,46 -533,262 -640,320 -49,26 -112,60 -140,74 -27,15 -77,42 -110,61 -33,20 -69,40 -80,45 -11,6 -27,14 -35,20 -8,5 -111,67 -228,137 -264,158 -239,143 -292,177 -163,104 -415,271 -510,338 -42,29 -105,73 -140,97 -36,25 -180,131 -320,236 -140,105 -268,198 -285,207 -88,46 -183,62 -295,47 z m 164,-113 c 30,-8 65,-20 78,-27 12,-7 137,-98 278,-204 140,-105 275,-204 300,-221 25,-17 86,-59 135,-94 95,-67 301,-206 420,-282 118,-76 159,-102 177,-113 10,-5 115,-69 235,-142 120,-72 241,-143 268,-158 28,-15 55,-31 60,-35 23,-17 416,-225 585,-310 75,-38 325,-156 450,-213 30,-13 127,-55 215,-92 88,-37 171,-72 185,-78 32,-14 88,-36 120,-47 14,-5 50,-18 80,-30 30,-12 66,-25 80,-30 14,-5 70,-25 125,-45 55,-20 114,-40 130,-45 17,-4 46,-14 65,-21 142,-49 205,-69 224,-69 8,0 30,-6 48,-14 18,-8 62,-22 98,-31 36,-9 79,-21 95,-27 17,-5 48,-14 70,-18 38,-7 73,-15 190,-45 28,-8 88,-21 135,-30 47,-9 114,-23 150,-30 36,-8 110,-21 165,-30 90,-15 230,-42 263,-51 9,-3 12,-573 11,-2811 0,-1709 -4,-2839 -10,-2888 -5,-44 -11,-107 -14,-140 -5,-60 -28,-206 -46,-300 -6,-27 -14,-72 -19,-100 -8,-44 -32,-149 -60,-255 -12,-47 -36,-128 -49,-165 -6,-16 -19,-57 -30,-90 -11,-34 -24,-72 -29,-85 -5,-14 -18,-45 -27,-70 -34,-87 -151,-331 -206,-430 -131,-233 -333,-479 -544,-662 -53,-46 -242,-188 -251,-188 -3,0 -23,-13 -43,-28 -20,-16 -43,-32 -51,-35 -8,-4 -60,-36 -115,-71 -86,-56 -339,-213 -400,-249 -11,-7 -38,-23 -60,-37 -22,-14 -47,-29 -55,-33 -8,-4 -28,-16 -45,-27 -16,-11 -39,-24 -50,-30 -11,-6 -33,-19 -50,-30 -16,-11 -39,-24 -50,-30 -11,-6 -33,-19 -50,-30 -16,-11 -37,-23 -45,-27 -8,-4 -80,-46 -160,-93 -80,-48 -152,-90 -160,-93 -8,-4 -28,-16 -45,-27 -16,-11 -37,-23 -45,-27 -8,-4 -69,-39 -135,-78 -66,-39 -127,-75 -135,-78 -8,-4 -28,-16 -45,-27 -16,-11 -37,-23 -45,-27 -8,-4 -59,-33 -113,-65 -54,-32 -100,-58 -102,-58 -2,0 -36,-19 -77,-43 -40,-24 -80,-46 -88,-50 -8,-4 -22,-11 -30,-17 -24,-16 -221,-130 -225,-130 -2,0 -49,-27 -105,-60 -56,-33 -103,-60 -105,-60 -2,0 -38,-20 -79,-45 -42,-25 -79,-45 -81,-45 -2,0 -37,-19 -77,-43 -40,-24 -80,-46 -88,-50 -8,-4 -22,-11 -30,-17 -27,-17 -172,-100 -175,-100 -2,0 -26,-13 -53,-29 -49,-29 -120,-69 -197,-111 -22,-12 -56,-31 -75,-42 -19,-11 -55,-31 -80,-45 -25,-13 -61,-34 -80,-45 -19,-11 -55,-31 -80,-45 -25,-13 -63,-35 -85,-47 -22,-12 -71,-40 -110,-61 -38,-21 -74,-41 -80,-45 -12,-8 -101,-58 -163,-90 -23,-12 -45,-26 -48,-31 -10,-16 -42,-9 -91,19 -26,16 -55,31 -63,35 -8,4 -33,18 -55,30 -87,50 -218,123 -285,160 -25,14 -61,34 -80,45 -19,11 -55,32 -80,45 -25,14 -61,34 -80,46 -19,11 -48,27 -65,35 -16,8 -52,29 -80,45 -27,17 -63,37 -80,45 -16,9 -48,26 -70,38 -22,13 -71,41 -110,63 -38,22 -78,45 -87,50 -9,6 -39,22 -65,36 -26,15 -64,36 -83,48 -19,11 -44,25 -56,30 -18,8 -130,73 -174,101 -8,5 -28,16 -45,24 -16,8 -52,29 -80,45 -27,17 -57,34 -65,38 -8,4 -46,25 -85,48 -38,22 -77,44 -85,48 -8,4 -24,13 -35,20 -11,7 -52,30 -90,52 -39,22 -79,45 -90,52 -11,7 -27,15 -35,19 -8,4 -58,33 -110,64 -52,31 -102,59 -110,63 -8,4 -28,16 -45,27 -16,11 -41,24 -54,30 -13,6 -35,19 -50,29 -14,10 -48,31 -76,45 -27,15 -63,36 -80,47 -16,10 -37,22 -45,26 -8,4 -58,32 -110,63 -52,31 -102,59 -110,63 -8,4 -28,16 -45,27 -16,11 -37,23 -45,27 -8,3 -33,18 -55,32 -55,35 -69,44 -102,62 -15,8 -104,61 -198,118 -209,126 -201,121 -250,151 -22,13 -49,30 -60,37 -11,7 -29,17 -40,23 -11,6 -32,18 -47,28 -15,9 -59,37 -98,62 -408,255 -464,296 -662,473 -54,49 -98,92 -98,95 0,4 -21,29 -45,55 -71,76 -285,362 -285,382 0,2 -19,36 -43,77 -38,65 -112,213 -153,306 -42,97 -43,99 -88,220 -8,20 -22,64 -31,97 -10,33 -23,76 -30,95 -22,60 -45,146 -45,165 0,9 -7,38 -15,64 -19,60 -45,183 -45,211 0,12 -7,49 -15,83 -16,71 -40,271 -55,467 -6,88 -10,1085 -10,2851 v 2715 l 20,22 c 13,14 33,22 52,22 17,0 54,6 82,14 71,20 190,46 212,46 10,0 36,6 59,14 22,7 76,21 120,31 44,9 100,23 125,30 25,8 74,21 110,30 36,10 81,23 100,30 33,12 67,21 165,46 22,6 44,14 50,20 5,5 18,9 30,9 11,0 52,12 90,26 39,14 84,29 100,34 35,10 163,54 218,75 20,8 54,21 75,29 20,8 56,21 80,30 23,9 59,22 80,30 46,17 187,74 227,91 17,8 55,23 85,35 49,20 105,44 195,85 17,7 50,22 75,33 214,95 282,128 555,264 254,126 453,230 615,321 19,11 53,30 75,42 22,11 59,33 82,48 24,15 44,27 47,27 2,0 61,34 131,75 69,41 128,75 130,75 2,0 23,13 47,29 24,15 62,39 84,52 36,21 139,85 209,129 60,38 162,102 180,113 11,7 36,24 55,38 19,14 40,28 45,30 6,2 63,40 128,84 65,44 129,87 142,95 58,37 228,156 370,260 50,36 104,72 120,80 85,40 171,49 259,26 z"
       id="path12"
       inkscape:connector-curvature="0"
       style="stroke-width:0.33922976" />
    <path
       d="m 6780,38380 c -89,-65 -126,-91 -305,-215 -134,-93 -454,-306 -526,-350 -22,-13 -154,-96 -187,-117 -15,-9 -37,-23 -49,-30 -13,-7 -98,-59 -190,-114 -93,-56 -190,-114 -217,-129 -67,-37 -148,-83 -166,-95 -8,-5 -35,-20 -60,-33 -25,-14 -61,-34 -80,-45 -19,-12 -57,-33 -85,-47 -27,-14 -104,-55 -170,-90 -66,-35 -235,-121 -375,-191 -250,-124 -313,-154 -435,-209 -33,-15 -78,-35 -100,-45 -85,-39 -152,-69 -205,-90 -30,-13 -83,-36 -118,-51 -34,-16 -66,-29 -72,-29 -9,0 -69,-24 -104,-42 -11,-6 -31,-14 -45,-18 -14,-5 -51,-18 -81,-30 -30,-12 -66,-25 -80,-30 -14,-5 -50,-18 -80,-30 -75,-29 -218,-79 -255,-90 -40,-11 -93,-30 -133,-46 -18,-8 -43,-14 -55,-14 -12,0 -31,-7 -41,-15 -11,-8 -28,-15 -39,-15 -19,0 -83,-19 -157,-46 -19,-7 -48,-15 -65,-18 -16,-3 -61,-15 -100,-27 -38,-11 -88,-24 -110,-28 -22,-5 -83,-20 -135,-33 -52,-14 -133,-33 -180,-42 -47,-9 -103,-22 -125,-29 l -40,-12 -3,-2705 c -3,-2420 -1,-2721 13,-2860 20,-199 35,-285 105,-620 8,-39 25,-99 60,-215 5,-16 16,-54 25,-84 8,-30 19,-59 25,-65 5,-5 10,-19 10,-31 0,-12 4,-25 8,-31 4,-5 18,-36 31,-69 56,-144 180,-393 217,-436 8,-8 14,-18 14,-22 0,-10 57,-93 139,-202 78,-104 289,-322 376,-388 107,-81 184,-137 189,-137 3,0 35,-20 72,-45 36,-25 67,-45 69,-45 2,0 32,-19 67,-43 35,-24 70,-46 78,-50 8,-4 27,-15 42,-25 25,-16 342,-211 383,-235 11,-7 39,-24 63,-39 24,-16 45,-28 47,-28 2,0 72,-40 155,-90 83,-49 153,-90 155,-90 2,0 21,-12 42,-26 21,-14 47,-30 58,-35 11,-5 34,-18 50,-29 17,-11 39,-24 50,-30 11,-5 27,-14 35,-20 22,-15 212,-125 230,-133 8,-4 29,-16 45,-27 17,-11 37,-23 45,-27 8,-4 58,-32 110,-63 52,-31 102,-59 110,-63 8,-4 24,-13 35,-20 11,-7 52,-30 90,-52 39,-22 79,-45 90,-52 11,-7 27,-16 35,-20 8,-4 47,-26 85,-48 39,-23 77,-45 85,-49 8,-4 24,-12 35,-19 11,-7 51,-30 90,-52 38,-22 78,-44 87,-50 9,-5 39,-22 65,-36 26,-15 64,-36 83,-48 19,-11 42,-24 50,-28 8,-4 48,-26 88,-50 41,-24 75,-43 77,-43 2,0 38,-20 79,-45 42,-25 78,-45 80,-45 4,0 145,-80 176,-100 8,-5 38,-21 65,-35 28,-15 64,-35 80,-45 17,-10 48,-28 70,-40 49,-27 136,-76 190,-107 22,-12 49,-27 60,-33 11,-6 38,-21 60,-33 22,-13 72,-41 110,-62 39,-21 84,-46 100,-56 17,-10 56,-32 87,-49 66,-35 65,-35 183,34 33,19 80,45 105,59 25,14 61,34 80,46 19,11 49,27 65,35 17,8 62,34 100,56 39,22 84,48 100,56 17,8 46,24 65,35 19,12 55,32 80,46 25,13 59,33 75,43 17,11 44,26 60,34 17,8 55,29 85,47 30,17 75,42 100,56 25,13 59,33 75,43 17,10 50,30 75,43 25,14 61,34 80,45 19,11 53,30 75,42 87,48 153,85 223,127 41,24 75,43 77,43 2,0 49,27 105,60 56,33 103,60 105,60 2,0 49,27 105,60 56,33 103,60 105,60 4,0 201,114 225,130 8,6 22,13 30,17 8,4 58,32 110,63 52,31 102,59 110,63 8,4 29,16 45,27 17,11 37,23 45,27 8,4 80,46 160,93 81,48 153,89 160,93 8,4 29,16 45,27 17,10 41,25 55,32 14,8 58,34 98,59 41,24 88,52 105,63 18,10 85,50 150,90 66,39 138,82 160,95 23,13 71,43 107,66 63,40 223,140 258,160 9,6 44,28 77,50 33,22 65,42 70,45 6,3 42,26 80,52 174,116 366,292 491,447 56,71 182,250 197,281 4,8 17,31 28,50 39,63 114,213 148,295 18,44 39,94 46,110 7,17 21,50 30,75 9,25 23,60 31,78 8,18 14,40 14,50 0,9 6,34 14,57 52,150 110,407 143,628 34,238 35,300 39,3032 l 4,2730 -21,18 c -12,9 -38,17 -58,17 -20,0 -56,5 -81,11 -25,6 -70,14 -100,19 -30,4 -75,12 -100,18 -25,6 -81,18 -125,27 -44,9 -102,23 -130,30 -48,13 -109,28 -185,46 -19,4 -69,17 -110,29 -143,42 -175,51 -205,60 -16,5 -52,16 -80,24 -27,9 -77,25 -110,37 -33,11 -73,25 -90,29 -36,10 -179,61 -255,90 -30,12 -66,25 -80,30 -14,5 -50,18 -80,30 -30,12 -67,25 -81,30 -14,4 -34,12 -45,18 -10,6 -71,31 -134,57 -63,26 -128,53 -145,61 -16,7 -57,25 -90,40 -245,108 -689,327 -890,439 -33,19 -82,45 -110,60 -27,14 -57,30 -65,35 -8,5 -62,37 -120,70 -58,33 -112,65 -120,70 -8,6 -24,15 -35,20 -11,6 -33,19 -50,30 -16,11 -39,24 -50,30 -11,6 -33,19 -50,30 -16,11 -39,24 -50,30 -11,6 -32,18 -47,28 -29,18 -150,95 -182,115 -11,7 -49,31 -84,55 -35,23 -65,42 -67,42 -10,0 -471,318 -585,404 -30,23 -65,48 -76,56 -12,8 -103,77 -203,153 l -182,137 h -67 -67 z m 196,-342 c 16,-13 37,-30 46,-38 9,-8 51,-40 93,-70 42,-30 130,-94 196,-142 65,-49 122,-88 125,-88 3,0 31,-19 62,-43 53,-40 495,-335 574,-382 29,-17 258,-159 286,-177 15,-10 34,-21 42,-25 8,-4 58,-32 110,-63 52,-31 102,-59 110,-63 8,-4 24,-13 35,-19 74,-48 268,-153 525,-285 69,-36 132,-69 140,-74 25,-15 398,-188 555,-259 22,-9 108,-45 190,-79 83,-35 164,-68 180,-75 17,-8 50,-21 75,-31 25,-9 56,-22 70,-27 14,-6 36,-14 50,-18 14,-5 50,-18 80,-30 30,-12 69,-26 85,-30 17,-5 75,-25 130,-45 99,-36 114,-41 210,-69 28,-7 61,-18 75,-24 14,-5 54,-18 90,-27 36,-10 83,-23 105,-30 22,-7 69,-20 105,-30 36,-9 88,-22 115,-30 28,-8 84,-22 125,-31 41,-9 98,-23 125,-30 28,-7 89,-20 138,-30 48,-9 92,-23 97,-29 16,-20 8,-5143 -8,-5265 -23,-172 -66,-416 -88,-505 -42,-165 -72,-268 -90,-313 -8,-18 -14,-40 -14,-50 0,-9 -7,-26 -15,-36 -8,-11 -15,-28 -15,-38 0,-32 -126,-297 -202,-423 -68,-113 -67,-111 -133,-200 -103,-140 -385,-406 -475,-449 -24,-11 -53,-29 -90,-56 -19,-14 -42,-29 -52,-35 -17,-10 -138,-86 -186,-117 -15,-10 -36,-22 -47,-28 -11,-6 -32,-18 -46,-28 -42,-27 -742,-448 -759,-455 -8,-4 -28,-16 -45,-27 -16,-11 -39,-24 -50,-30 -11,-6 -33,-19 -50,-30 -16,-11 -37,-23 -45,-27 -8,-4 -58,-32 -110,-63 -52,-31 -102,-59 -110,-63 -8,-4 -24,-13 -35,-20 -11,-7 -63,-37 -115,-67 -52,-30 -104,-60 -115,-67 -11,-7 -27,-16 -35,-20 -8,-4 -58,-32 -110,-63 -52,-31 -102,-59 -110,-63 -8,-4 -24,-13 -35,-20 -11,-7 -51,-30 -90,-52 -38,-22 -79,-45 -90,-52 -11,-6 -33,-19 -50,-27 -16,-8 -52,-29 -80,-45 -27,-17 -59,-35 -70,-41 -11,-6 -38,-21 -60,-33 -22,-13 -66,-38 -99,-56 -32,-18 -79,-45 -105,-60 -25,-15 -53,-30 -61,-34 -8,-4 -37,-21 -65,-38 -27,-16 -63,-37 -80,-45 -16,-8 -43,-23 -60,-34 -16,-11 -43,-26 -60,-34 -16,-8 -52,-29 -80,-45 -27,-17 -63,-37 -80,-45 -16,-8 -55,-29 -85,-47 -30,-17 -75,-42 -100,-56 -25,-13 -67,-38 -95,-54 -27,-17 -63,-37 -80,-45 -16,-8 -46,-24 -65,-35 -19,-12 -55,-32 -80,-46 -25,-13 -65,-35 -89,-49 -44,-24 -105,-32 -115,-15 -3,5 -27,20 -53,34 -27,13 -64,34 -83,45 -19,11 -55,32 -80,45 -25,14 -61,34 -80,45 -19,12 -57,32 -85,47 -27,14 -57,30 -65,35 -31,20 -172,100 -176,100 -3,0 -141,79 -174,100 -8,5 -37,21 -65,35 -27,14 -63,34 -80,45 -16,11 -43,26 -60,34 -34,17 -100,54 -223,127 -46,27 -86,49 -88,49 -2,0 -36,19 -76,43 -40,24 -80,46 -88,50 -8,4 -31,17 -50,28 -19,12 -55,32 -80,46 -25,13 -52,28 -60,33 -34,22 -216,127 -230,133 -8,4 -22,11 -30,16 -31,20 -216,127 -230,134 -8,4 -22,11 -30,17 -25,16 -315,186 -330,193 -8,4 -22,11 -30,17 -26,17 -314,186 -330,193 -8,4 -28,16 -45,27 -16,11 -39,24 -50,30 -11,6 -33,19 -50,30 -16,11 -39,24 -50,30 -11,6 -33,19 -50,30 -16,11 -39,24 -50,30 -11,6 -32,18 -46,28 -23,14 -81,50 -161,97 -25,15 -206,127 -233,145 -38,24 -165,104 -183,115 -286,172 -512,398 -695,695 -46,74 -167,312 -167,328 0,6 -6,23 -14,39 -8,15 -21,46 -29,68 -8,22 -21,58 -30,80 -14,40 -30,91 -60,195 -42,146 -67,259 -91,405 -55,325 -50,73 -54,2917 -3,2505 -2,2617 15,2626 10,5 41,14 68,21 28,7 73,18 100,26 28,8 79,21 115,30 36,9 79,21 95,27 17,5 46,14 65,18 19,5 60,16 90,26 30,9 76,22 102,29 25,8 56,18 67,24 11,6 30,11 43,11 13,0 28,4 33,8 6,5 44,19 85,31 41,13 84,27 95,32 28,12 104,39 140,49 17,4 55,18 85,30 30,12 66,25 80,30 14,5 50,18 80,30 30,12 67,25 81,30 14,4 34,12 45,18 10,5 39,18 64,27 25,10 59,23 75,31 17,7 86,36 155,64 69,29 150,64 180,77 30,14 73,33 95,43 43,20 141,65 245,112 90,42 466,229 575,287 117,62 244,130 303,161 47,25 169,94 207,117 11,7 27,15 35,19 8,4 48,27 88,51 41,24 75,43 77,43 2,0 21,12 42,26 21,14 47,30 58,35 11,5 34,18 50,29 17,11 39,24 50,30 11,6 34,19 50,30 17,11 39,24 50,30 11,6 32,18 47,28 15,9 55,35 90,56 96,60 194,123 291,188 49,32 91,58 94,58 3,0 22,14 43,30 21,17 40,30 43,30 5,0 39,23 204,137 38,26 96,66 130,90 35,23 82,56 104,73 23,16 45,30 49,30 4,0 20,-10 36,-22 z"
       id="path14"
       inkscape:connector-curvature="0"
       style="stroke-width:0.33922976" />
    <path
       d="m 6515,36154 c -103,-13 -154,-23 -330,-60 -99,-21 -321,-86 -405,-118 -472,-184 -828,-414 -1175,-761 -55,-56 -123,-128 -151,-160 -73,-86 -224,-289 -270,-364 -21,-35 -47,-75 -56,-90 -56,-88 -180,-339 -223,-451 -9,-25 -23,-58 -30,-75 -18,-42 -65,-183 -75,-225 -5,-19 -20,-78 -33,-130 -22,-83 -23,-98 -11,-117 27,-43 48,-39 172,34 240,141 422,213 672,266 144,31 313,39 475,23 169,-16 359,-72 551,-162 39,-19 87,-45 108,-59 20,-14 39,-25 42,-25 14,0 165,-125 215,-177 85,-89 177,-208 218,-283 38,-70 102,-201 121,-250 12,-30 28,-70 36,-88 8,-18 14,-41 14,-50 0,-10 4,-22 9,-27 5,-6 18,-46 30,-90 12,-44 26,-94 31,-110 14,-46 41,-191 50,-272 5,-40 11,-76 14,-81 10,-16 36,-401 36,-531 0,-149 -27,-562 -40,-611 -6,-19 -10,-53 -10,-75 0,-22 -7,-76 -16,-120 -48,-253 -69,-352 -91,-435 -25,-97 -43,-164 -60,-220 -15,-52 -22,-75 -53,-160 -6,-19 -14,-46 -17,-60 -3,-14 -12,-34 -19,-45 -8,-11 -14,-29 -14,-40 0,-12 -7,-30 -15,-41 -8,-10 -15,-28 -15,-39 0,-12 -4,-25 -9,-30 -5,-6 -21,-39 -36,-75 -80,-193 -245,-496 -276,-505 -16,-5 -108,22 -219,65 -30,12 -67,25 -81,30 -14,4 -34,12 -45,18 -10,6 -50,25 -89,42 -175,80 -281,139 -490,270 -294,185 -631,496 -890,820 -66,82 -235,323 -235,335 0,2 -12,21 -26,42 -14,21 -30,47 -35,58 -5,11 -24,47 -42,80 -65,119 -114,218 -155,315 -8,19 -19,44 -25,54 -5,11 -13,31 -17,45 -5,14 -18,51 -30,81 -55,145 -128,394 -150,515 -8,44 -26,140 -41,225 -12,67 -38,380 -39,470 0,109 -32,130 -146,95 -27,-8 -61,-15 -75,-15 -15,0 -43,-7 -62,-15 -39,-16 -62,-12 -72,13 -25,61 -22,675 3,743 6,16 7,31 1,40 -10,15 -8,17 -189,-180 -52,-57 -119,-130 -149,-163 -29,-32 -60,-58 -68,-58 -13,0 -167,137 -391,348 -25,24 -51,41 -59,38 -11,-5 -12,-47 -8,-233 4,-126 11,-277 16,-338 6,-60 15,-159 19,-220 5,-60 19,-175 30,-255 12,-80 25,-170 29,-200 5,-30 18,-100 31,-155 12,-55 24,-113 27,-130 11,-61 36,-65 160,-28 63,20 83,9 83,-45 0,-19 6,-58 14,-86 8,-28 22,-87 31,-131 9,-44 21,-93 27,-110 5,-16 13,-46 18,-65 10,-45 36,-136 49,-175 6,-16 19,-57 30,-90 11,-33 30,-85 41,-115 12,-30 25,-66 30,-80 38,-116 252,-554 330,-675 11,-16 23,-37 27,-45 19,-40 231,-349 287,-417 8,-10 31,-38 51,-63 20,-25 53,-65 73,-90 281,-344 719,-718 1157,-987 11,-7 29,-17 40,-22 11,-6 47,-26 80,-45 99,-57 385,-198 461,-226 24,-9 26,-14 19,-46 -3,-20 -12,-50 -20,-68 -12,-30 -27,-67 -61,-158 -8,-24 -22,-56 -30,-71 -8,-16 -14,-35 -14,-42 0,-8 -7,-31 -16,-52 -9,-21 -22,-51 -29,-68 -7,-16 -20,-47 -29,-68 -9,-21 -16,-53 -16,-72 0,-37 21,-57 76,-75 16,-4 54,-18 84,-30 30,-12 69,-25 85,-30 17,-5 46,-14 65,-21 19,-6 51,-17 70,-24 33,-12 70,-23 200,-59 121,-33 147,-40 190,-47 25,-4 63,-12 85,-18 22,-6 76,-17 120,-25 44,-8 107,-20 140,-26 33,-6 94,-15 135,-20 41,-5 109,-13 150,-18 41,-6 193,-16 337,-23 231,-11 297,-11 550,4 285,17 397,28 503,49 30,5 71,12 90,14 43,5 179,31 240,46 25,6 63,14 85,19 82,17 168,38 194,47 14,5 55,17 91,27 36,9 81,23 100,30 79,28 106,37 135,45 17,5 55,18 85,30 30,12 67,25 81,30 48,15 88,40 94,59 3,12 -7,52 -25,98 -35,85 -55,139 -75,193 -31,86 -48,127 -61,153 -8,16 -14,36 -14,46 0,9 -7,26 -15,37 -8,10 -15,28 -15,39 0,11 -7,29 -15,39 -30,39 -28,41 130,111 78,35 201,96 295,147 63,34 120,67 305,181 11,6 36,24 56,40 20,15 40,27 43,27 9,0 235,171 316,239 100,83 341,305 375,345 17,19 60,65 96,103 141,146 385,461 485,626 16,27 34,56 39,65 6,9 22,35 36,57 14,22 29,47 33,55 4,8 22,42 41,75 47,85 178,349 205,415 12,30 28,69 35,85 7,17 21,50 30,75 9,25 23,60 31,78 8,18 14,39 14,47 0,8 6,29 14,47 47,110 166,563 166,633 0,52 11,59 80,52 l 62,-5 14,33 c 7,18 17,57 22,86 5,30 14,74 20,99 17,69 42,215 42,245 0,15 7,64 15,109 18,100 41,365 55,636 15,299 15,373 1,378 -13,4 -40,-18 -201,-169 -63,-59 -142,-132 -175,-163 -62,-57 -84,-66 -107,-42 -29,29 -178,194 -217,240 -23,27 -48,54 -54,61 -7,6 -26,27 -43,46 -17,19 -41,40 -54,47 -21,13 -22,12 -16,-5 28,-69 40,-512 20,-703 l -9,-85 -64,3 c -35,2 -82,10 -104,18 -38,13 -43,13 -67,-4 -24,-18 -25,-26 -32,-138 -15,-271 -62,-603 -104,-734 -8,-25 -14,-53 -14,-62 0,-10 -6,-37 -14,-60 -7,-24 -28,-90 -46,-148 -17,-58 -38,-117 -46,-132 -8,-14 -14,-34 -14,-43 0,-9 -6,-29 -14,-43 -8,-15 -24,-52 -36,-82 -23,-58 -95,-215 -110,-240 -5,-8 -21,-37 -34,-65 -14,-27 -41,-77 -61,-110 -19,-33 -39,-69 -45,-80 -28,-56 -169,-259 -245,-355 -206,-260 -462,-515 -690,-687 -95,-71 -244,-176 -265,-186 -8,-4 -28,-16 -45,-27 -16,-11 -39,-24 -50,-30 -11,-6 -47,-26 -80,-46 -96,-55 -325,-166 -435,-209 -25,-9 -56,-22 -70,-27 -77,-31 -175,-58 -191,-53 -32,10 -191,297 -268,482 -18,43 -37,87 -43,97 -6,11 -14,31 -18,45 -5,14 -18,51 -30,81 -11,30 -30,84 -41,120 -12,36 -27,81 -34,100 -7,19 -20,62 -29,95 -10,33 -23,80 -31,105 -7,25 -21,79 -30,120 -9,41 -23,98 -30,125 -18,67 -45,217 -45,246 0,13 -6,56 -14,94 -38,181 -50,371 -50,745 1,226 6,392 13,435 6,39 14,95 17,125 2,30 11,87 19,125 8,39 22,106 31,150 9,44 22,98 29,120 7,22 23,74 35,115 13,41 27,79 31,85 5,5 9,17 9,26 0,10 6,30 14,46 8,15 28,60 45,98 18,39 36,77 41,85 6,8 15,26 20,39 21,47 139,217 188,271 28,30 52,58 52,61 0,14 170,148 241,190 273,164 549,243 849,243 111,0 263,-18 370,-44 47,-11 101,-24 120,-29 19,-5 46,-13 60,-19 14,-5 45,-18 70,-27 43,-17 126,-54 215,-96 22,-10 76,-41 120,-68 123,-77 145,-85 175,-67 14,8 26,25 28,38 3,21 -25,137 -64,263 -8,28 -19,64 -24,80 -4,17 -18,55 -30,85 -12,30 -26,69 -31,87 -5,18 -14,35 -19,38 -6,4 -10,13 -10,21 0,23 -148,320 -208,416 -79,127 -105,165 -171,253 -276,369 -581,643 -963,868 -73,43 -292,153 -368,185 -19,8 -48,21 -63,28 -16,8 -35,14 -42,14 -8,0 -29,6 -47,14 -53,23 -109,42 -173,61 -33,9 -70,21 -83,26 -27,11 -147,38 -217,50 -27,4 -72,13 -100,18 -27,6 -104,17 -170,26 -157,20 -757,19 -920,-1 z m 972,-123 c 73,-11 149,-24 170,-30 21,-5 72,-17 113,-25 87,-19 157,-39 255,-73 39,-14 79,-27 90,-30 65,-16 358,-152 487,-226 239,-136 446,-295 649,-497 74,-74 155,-157 179,-185 80,-93 261,-340 283,-385 4,-8 16,-28 26,-45 95,-147 230,-444 286,-625 10,-30 21,-65 26,-78 10,-26 12,-62 3,-62 -11,0 -143,72 -152,83 -5,7 -17,35 -27,62 -9,28 -23,62 -31,77 -8,14 -14,33 -14,41 0,9 -6,28 -14,44 -8,15 -44,89 -80,163 -107,219 -165,315 -300,495 -111,149 -189,237 -336,381 -204,200 -355,312 -670,494 -64,37 -287,140 -303,140 -7,0 -21,6 -32,13 -19,13 -261,92 -355,116 -70,18 -189,42 -255,51 -33,4 -85,14 -115,21 -88,22 -711,18 -810,-4 -41,-9 -86,-17 -100,-17 -36,0 -224,-43 -330,-75 -25,-8 -60,-17 -77,-20 -18,-4 -35,-11 -38,-16 -4,-5 -15,-9 -25,-9 -11,0 -34,-6 -52,-14 -18,-8 -53,-22 -78,-31 -84,-32 -324,-147 -420,-202 -70,-40 -288,-189 -365,-250 -127,-99 -293,-258 -401,-383 -21,-25 -44,-49 -50,-55 -62,-55 -374,-530 -374,-568 0,-8 -7,-20 -15,-27 -8,-7 -15,-16 -15,-21 0,-5 -14,-40 -31,-77 -47,-100 -50,-107 -105,-254 -28,-77 -38,-90 -99,-123 -56,-31 -93,-36 -78,-12 3,6 10,27 14,46 8,40 14,58 76,226 31,85 58,145 108,245 77,151 106,202 163,288 23,35 42,66 42,68 0,7 142,195 203,269 86,105 310,328 402,401 28,21 52,42 55,45 25,28 252,185 315,219 11,6 34,19 50,30 51,32 230,125 325,167 19,9 44,20 54,26 11,5 31,13 45,17 14,5 51,18 81,30 48,18 92,33 215,70 67,21 189,50 208,50 11,0 43,6 71,14 65,19 267,46 371,50 44,2 208,2 365,0 216,-3 317,-9 417,-23 z m -305,-181 c 175,-12 399,-47 533,-85 169,-47 299,-89 375,-123 19,-8 49,-21 65,-28 37,-16 233,-112 260,-127 240,-138 372,-234 554,-402 179,-163 376,-395 478,-561 67,-109 113,-187 131,-224 13,-25 27,-52 32,-60 5,-8 11,-22 14,-30 3,-8 10,-22 15,-30 9,-15 34,-69 57,-125 7,-16 20,-47 29,-68 19,-45 14,-73 -13,-62 -68,29 -248,81 -312,90 -25,4 -58,10 -75,15 -16,5 -88,11 -160,14 -71,3 -134,5 -138,6 -5,0 -7,29 -6,64 2,56 -1,67 -24,92 -24,25 -27,26 -33,10 -4,-10 -2,-33 4,-50 16,-43 15,-103 0,-113 -7,-4 -51,-11 -98,-15 -74,-6 -163,-23 -300,-57 -19,-5 -60,-19 -90,-31 -30,-12 -66,-25 -80,-30 -54,-17 -269,-135 -335,-183 -167,-122 -281,-255 -432,-502 -55,-90 -153,-327 -187,-450 -9,-33 -23,-82 -31,-110 -7,-27 -21,-84 -29,-125 -8,-41 -20,-100 -26,-130 -31,-153 -43,-318 -47,-665 -5,-370 4,-524 42,-762 39,-241 48,-292 60,-343 7,-30 21,-89 29,-130 9,-41 24,-100 32,-130 60,-214 96,-331 134,-430 12,-30 25,-66 30,-80 12,-34 33,-88 49,-125 8,-16 19,-43 27,-60 29,-68 139,-291 150,-305 21,-27 27,-60 10,-60 -29,0 -211,197 -239,260 -4,8 -16,29 -26,45 -18,28 -51,91 -65,125 -3,8 -10,22 -15,30 -5,8 -17,33 -26,55 -10,22 -22,48 -27,58 -4,9 -19,50 -32,90 -13,39 -28,83 -34,97 -5,14 -18,54 -27,90 -9,36 -23,83 -30,105 -7,22 -20,76 -30,120 -9,44 -23,105 -30,135 -17,71 -36,172 -45,235 -4,28 -12,77 -18,110 -21,109 -42,260 -42,302 0,22 -5,65 -11,94 -10,54 -18,143 -38,444 -30,445 -41,718 -40,996 1,169 -2,312 -5,318 -10,16 -210,15 -224,-2 -7,-8 -12,-173 -15,-477 -4,-446 -25,-908 -47,-1042 -5,-34 -10,-85 -10,-113 0,-55 -24,-255 -46,-382 -8,-45 -14,-97 -14,-115 0,-18 -5,-49 -10,-69 -6,-20 -15,-67 -20,-105 -5,-38 -14,-87 -19,-109 -6,-22 -17,-76 -27,-120 -9,-44 -22,-102 -29,-130 -8,-27 -21,-77 -30,-110 -24,-93 -46,-166 -61,-207 -34,-93 -44,-118 -79,-201 -40,-98 -109,-233 -131,-258 -8,-8 -14,-19 -14,-23 0,-26 -204,-246 -227,-246 -15,0 -18,36 -4,44 16,10 201,394 201,417 0,6 6,23 14,37 22,44 46,102 46,113 0,6 6,25 13,42 22,51 38,99 48,142 6,22 14,44 20,50 5,5 9,18 9,29 0,11 6,38 14,61 28,81 92,343 106,435 4,30 11,62 14,70 8,21 37,210 46,300 5,41 14,113 21,160 17,116 17,856 0,955 -7,39 -14,93 -17,120 -7,72 -55,313 -80,400 -32,110 -86,271 -95,279 -5,6 -9,16 -9,24 0,19 -84,191 -139,282 -125,210 -317,406 -506,516 -82,48 -251,126 -325,150 -350,114 -662,121 -1050,25 -19,-5 -62,-19 -95,-31 -83,-30 -111,-31 -107,-3 5,37 119,288 176,388 241,424 554,767 933,1021 70,47 137,90 148,95 11,5 36,19 55,30 62,38 253,130 338,163 23,9 59,23 80,31 132,52 446,135 509,135 17,0 44,5 60,11 32,13 295,36 425,38 48,0 156,-4 240,-9 z M 3148,32698 c 5,-7 13,-80 17,-163 4,-82 11,-175 17,-205 5,-30 13,-84 18,-120 12,-96 41,-242 51,-262 5,-9 9,-29 9,-44 0,-14 6,-47 14,-73 8,-25 22,-71 30,-101 21,-73 51,-163 76,-230 43,-113 51,-136 59,-161 5,-14 13,-34 19,-45 6,-10 25,-50 42,-89 68,-147 126,-257 204,-383 28,-45 56,-90 61,-100 31,-53 206,-296 225,-312 3,-3 16,-18 29,-35 84,-110 323,-356 458,-472 108,-93 370,-287 455,-338 9,-5 48,-29 85,-51 213,-130 475,-253 701,-330 59,-20 116,-43 127,-50 14,-10 59,-14 169,-14 148,0 300,-17 401,-45 28,-7 77,-21 110,-30 33,-9 76,-22 95,-29 89,-35 199,-83 235,-103 22,-13 50,-27 62,-32 11,-5 24,-15 28,-20 11,-18 49,-12 96,13 24,14 78,41 119,61 41,20 87,43 102,51 14,8 35,14 45,14 10,0 23,4 29,8 16,16 240,77 309,86 22,3 69,10 105,15 36,6 130,11 211,11 94,0 149,4 156,11 7,7 38,20 70,31 32,10 75,25 96,33 20,8 54,21 75,29 155,58 473,213 587,286 17,11 37,23 45,27 27,13 234,155 315,217 198,151 532,472 650,627 182,238 268,361 336,486 15,26 36,64 47,83 55,94 188,375 212,450 5,14 18,50 30,80 62,162 134,423 164,590 38,218 49,302 65,525 l 6,90 50,-1 c 28,-1 93,-11 145,-23 52,-12 115,-26 140,-30 25,-5 68,-14 95,-21 28,-6 76,-18 107,-26 32,-8 67,-14 77,-14 33,0 42,-31 31,-107 -5,-37 -10,-93 -10,-123 0,-57 -21,-212 -45,-335 -8,-38 -21,-108 -30,-155 -9,-47 -22,-107 -30,-135 -7,-27 -21,-79 -30,-115 -10,-36 -23,-81 -30,-100 -7,-19 -20,-62 -29,-95 -10,-33 -24,-73 -32,-88 -8,-16 -14,-35 -14,-42 0,-8 -6,-29 -14,-47 -8,-18 -29,-69 -46,-113 -62,-157 -190,-421 -272,-558 -32,-55 -58,-100 -58,-102 0,-3 -43,-70 -119,-185 -174,-263 -480,-610 -742,-840 -185,-162 -403,-326 -580,-435 -26,-16 -182,-109 -204,-122 -35,-20 -318,-160 -365,-180 -25,-11 -58,-26 -75,-33 -35,-16 -90,-38 -125,-50 -14,-5 -50,-18 -80,-30 -78,-30 -200,-69 -325,-105 -33,-9 -76,-22 -95,-28 -19,-6 -53,-14 -75,-17 -22,-4 -60,-12 -85,-18 -105,-26 -313,-61 -425,-72 -44,-5 -125,-13 -180,-19 -128,-13 -601,-13 -725,0 -52,5 -133,14 -180,19 -156,16 -408,63 -575,107 -127,33 -263,72 -290,84 -11,5 -54,20 -95,33 -102,34 -175,63 -233,92 -16,8 -33,14 -39,14 -18,0 -281,128 -388,190 -30,17 -68,38 -85,46 -124,62 -495,321 -635,443 -14,12 -52,45 -85,73 -103,87 -376,367 -476,488 -131,158 -200,252 -303,410 -49,74 -97,147 -107,162 -11,15 -19,29 -19,32 0,2 -19,37 -43,78 -72,124 -227,446 -227,472 0,8 -4,17 -10,21 -5,3 -14,20 -19,38 -5,18 -19,57 -31,87 -36,92 -81,223 -90,260 -5,19 -18,67 -29,105 -11,39 -30,111 -41,160 -12,50 -28,113 -36,141 -8,28 -14,62 -14,75 0,13 -6,57 -14,99 -23,120 -37,225 -47,370 -11,156 -12,152 80,170 31,6 74,16 96,22 22,6 60,15 85,19 25,3 88,17 140,29 52,12 116,25 142,29 26,4 51,10 55,14 10,11 30,8 41,-5 z m 3922,-1495 c 10,-107 29,-243 45,-333 7,-41 21,-120 30,-175 9,-55 22,-125 30,-155 7,-30 21,-91 30,-135 10,-44 23,-100 30,-125 8,-25 21,-70 29,-100 28,-96 85,-268 95,-287 5,-10 26,-57 45,-105 73,-176 173,-333 289,-454 42,-45 77,-86 77,-91 0,-11 -87,-33 -132,-33 -17,0 -54,-6 -82,-14 -60,-17 -127,-34 -176,-45 -19,-5 -46,-13 -60,-19 -14,-5 -45,-18 -70,-27 -25,-10 -78,-33 -117,-52 -40,-19 -77,-31 -83,-28 -11,7 -14,2202 -4,2243 10,36 16,19 24,-65 z m -150,-1065 c 0,-609 -4,-1109 -8,-1112 -5,-3 -39,10 -78,28 -38,18 -91,41 -119,50 -27,10 -57,21 -66,26 -16,8 -117,36 -179,50 -19,4 -55,12 -80,18 -25,6 -76,15 -114,21 -38,5 -73,14 -79,20 -7,7 7,25 42,57 116,104 241,298 338,524 9,19 22,48 29,63 8,16 14,35 14,42 0,7 6,26 14,42 8,15 22,55 31,88 10,33 23,78 30,100 12,37 24,81 60,220 7,28 20,86 29,130 9,44 22,100 27,125 13,54 37,200 48,290 5,36 14,103 20,150 6,47 14,112 17,144 18,182 24,-67 24,-1076 z m 1779,-1795 c 12,-32 29,-73 37,-91 8,-18 14,-37 14,-43 0,-6 6,-25 14,-42 7,-18 21,-52 31,-77 9,-25 23,-60 31,-78 17,-41 18,-68 2,-79 -16,-10 -64,-28 -148,-54 -36,-12 -81,-27 -100,-34 -48,-17 -204,-62 -305,-88 -116,-29 -160,-40 -200,-47 -71,-13 -168,-31 -240,-45 -141,-28 -243,-38 -666,-65 -269,-17 -760,13 -1009,62 -30,5 -77,14 -105,18 -79,11 -177,31 -215,43 -19,6 -53,14 -75,18 -71,14 -167,37 -194,47 -14,5 -51,17 -81,26 -65,19 -248,79 -305,100 -49,17 -54,36 -25,108 22,53 40,100 66,171 35,93 47,124 60,149 8,14 14,33 14,41 0,8 6,17 13,20 19,7 68,-3 92,-19 11,-8 27,-14 37,-14 9,0 32,-6 50,-14 32,-13 71,-26 193,-60 33,-10 75,-22 94,-28 43,-13 141,-36 201,-47 25,-5 68,-13 95,-19 122,-26 213,-42 243,-42 17,0 74,-8 124,-17 79,-15 159,-17 543,-17 323,0 468,4 515,13 36,7 101,16 145,21 78,8 204,29 295,50 119,27 228,52 255,60 17,5 55,16 85,24 69,20 249,79 315,104 29,11 57,16 65,11 9,-4 26,-34 39,-66 z"
       id="path16"
       inkscape:connector-curvature="0"
       style="stroke-width:0.33922976" />
    <path
       d="m 7001,35736 c -14,-15 -21,-31 -17,-41 5,-14 11,-12 41,11 20,15 34,32 32,38 -7,21 -33,17 -56,-8 z"
       id="path18"
       inkscape:connector-curvature="0"
       style="stroke-width:0.33922976" />
    <path
       d="m 6915,35663 c -33,-2 -107,-8 -165,-14 -58,-7 -139,-15 -180,-19 -41,-4 -111,-15 -155,-23 -44,-9 -81,-16 -82,-17 -2,0 -3,-6 -3,-14 0,-21 25,-27 61,-14 28,9 34,8 46,-8 20,-27 12,-47 -25,-63 -17,-8 -32,-20 -32,-27 0,-17 93,-87 133,-100 9,-4 17,-10 17,-15 0,-5 7,-9 15,-9 14,0 13,3 -2,25 -10,13 -23,25 -28,25 -16,0 -46,40 -40,50 4,6 22,10 42,10 20,0 44,7 54,16 27,25 47,10 54,-40 4,-25 16,-52 26,-62 17,-16 19,-16 25,1 4,9 1,49 -5,88 -19,113 -20,122 -13,134 9,15 256,38 305,29 36,-7 51,-24 38,-44 -5,-9 -21,-10 -52,-4 -98,19 -153,-7 -147,-70 2,-26 8,-34 28,-36 21,-4 23,-2 10,13 -23,27 17,58 87,66 32,3 61,4 65,2 15,-8 -4,-31 -40,-49 -75,-38 -97,-71 -39,-60 73,15 79,14 91,-27 20,-69 31,-47 34,67 1,61 8,116 14,123 6,7 24,13 40,13 17,0 31,6 35,15 8,22 1,26 -54,31 -26,2 -59,5 -73,7 -14,1 -52,1 -85,0 z m -301,-89 c 14,-36 5,-54 -35,-75 -46,-23 -89,-19 -89,9 0,9 -3,26 -6,38 -7,26 24,42 82,43 29,1 44,-4 48,-15 z"
       id="path20"
       inkscape:connector-curvature="0"
       style="stroke-width:0.33922976" />
    <path
       d="m 7180,35611 c -10,-19 -8,-27 13,-55 22,-29 24,-34 11,-56 -16,-30 -18,-60 -3,-60 6,0 13,9 16,20 4,17 14,20 54,20 55,0 72,15 33,30 -24,10 -25,12 -12,28 42,48 25,80 -48,88 -46,6 -53,4 -64,-15 z m 98,-23 c 3,-18 -32,-43 -48,-33 -14,9 -12,42 3,48 21,9 42,2 45,-15 z"
       id="path22"
       inkscape:connector-curvature="0"
       style="stroke-width:0.33922976" />
    <path
       d="m 7347,35623 c -4,-4 8,-21 27,-38 34,-29 34,-32 27,-78 -9,-53 -26,-70 -97,-99 -39,-16 -43,-16 -73,3 -40,24 -44,1 -5,-30 32,-25 71,-27 103,-5 24,17 37,11 43,-20 11,-61 45,-1 69,121 17,91 24,97 78,78 24,-8 51,-15 61,-15 10,0 40,-7 66,-14 27,-8 61,-17 75,-20 40,-9 72,-38 63,-60 -7,-19 -22,-19 -114,3 -97,24 -109,24 -116,8 -7,-20 26,-96 43,-97 6,0 15,9 18,20 11,35 39,42 87,20 58,-26 59,-27 43,-67 -20,-47 -20,-93 0,-93 8,0 15,5 15,11 0,6 6,25 14,42 8,18 24,60 37,95 20,57 24,62 51,62 32,0 88,-28 88,-43 0,-6 -5,-27 -12,-48 -8,-29 -8,-45 0,-64 13,-28 32,-33 32,-8 0,27 41,103 56,103 25,0 94,-42 94,-58 0,-8 -12,-31 -26,-50 -26,-33 -29,-34 -74,-28 -38,5 -49,3 -54,-9 -3,-9 -22,-23 -41,-31 -19,-8 -35,-17 -35,-21 0,-3 36,-3 80,1 l 79,6 -10,-30 c -12,-33 -5,-64 12,-58 7,2 33,44 59,93 26,49 54,93 62,99 10,6 26,4 48,-8 42,-21 50,-20 50,3 0,15 -30,34 -126,81 -69,34 -138,66 -152,70 -15,5 -52,18 -82,30 -51,19 -100,36 -221,75 -26,8 -57,15 -68,15 -12,0 -30,4 -39,9 -10,5 -55,16 -102,25 -47,8 -94,18 -105,21 -11,3 -24,3 -28,-2 z"
       id="path24"
       inkscape:connector-curvature="0"
       style="stroke-width:0.33922976" />
    <path
       d="m 5980,35581 c -14,-28 -13,-31 14,-31 26,0 51,24 41,40 -10,17 -44,11 -55,-9 z"
       id="path26"
       inkscape:connector-curvature="0"
       style="stroke-width:0.33922976" />
    <path
       d="m 6095,35524 c -15,-8 -33,-14 -41,-14 -7,0 -28,-6 -46,-14 -18,-8 -53,-22 -78,-32 -60,-23 -138,-58 -237,-106 -62,-30 -83,-45 -83,-60 0,-15 5,-18 20,-13 12,4 28,1 36,-6 19,-16 54,-83 54,-104 0,-25 -62,-113 -83,-119 -27,-7 -15,-32 14,-28 26,3 69,39 69,58 0,24 25,35 46,19 10,-8 25,-15 32,-15 17,0 15,35 -3,50 -8,7 -15,18 -15,25 0,7 -13,37 -30,68 -50,93 -53,89 149,176 108,47 116,48 131,22 16,-31 25,-24 -122,-91 -61,-28 -66,-44 -21,-74 39,-27 67,-25 58,5 -8,24 11,59 33,59 9,0 26,7 36,15 18,13 22,13 43,-7 13,-12 23,-31 23,-43 0,-27 45,-72 55,-55 4,7 3,22 -3,33 -19,41 -52,153 -52,178 0,17 9,28 32,39 18,8 34,20 35,26 6,19 -23,23 -52,8 z"
       id="path28"
       inkscape:connector-curvature="0"
       style="stroke-width:0.33922976" />
    <path
       d="m 8280,35249 c -13,-23 -6,-69 10,-69 20,0 9,-21 -15,-30 -36,-14 -32,-36 8,-37 17,0 46,-6 64,-13 36,-16 57,-5 30,14 -24,19 -21,36 7,36 23,0 36,16 36,44 0,7 -13,27 -28,44 -36,40 -94,45 -112,11 z m 95,-23 c 37,-27 -2,-58 -49,-40 -20,8 -20,18 0,38 19,19 25,20 49,2 z"
       id="path30"
       inkscape:connector-curvature="0"
       style="stroke-width:0.33922976" />
    <path
       d="m 5548,35222 c 4,-30 -18,-62 -44,-62 -16,0 -19,36 -4,45 15,9 12,35 -3,35 -22,0 -47,-34 -47,-62 0,-29 17,-46 57,-57 22,-6 29,-14 33,-41 6,-43 30,-53 30,-12 0,20 11,41 36,66 28,29 32,37 19,42 -8,4 -23,0 -32,-7 -15,-13 -15,-11 -9,23 6,31 3,39 -13,47 -27,15 -28,15 -23,-17 z"
       id="path32"
       inkscape:connector-curvature="0"
       style="stroke-width:0.33922976" />
    <path
       d="m 5292,35106 c -104,-78 -171,-135 -291,-253 -58,-57 -72,-76 -63,-85 10,-10 19,-8 43,6 24,14 34,15 42,6 9,-8 8,-14 -5,-21 -22,-12 -33,-66 -17,-85 7,-8 20,-12 30,-9 28,9 56,-3 62,-25 4,-15 14,-20 41,-20 27,0 43,8 71,37 19,20 35,46 35,59 0,25 26,44 59,44 30,0 32,14 8,41 -71,78 -127,147 -127,156 0,6 19,26 43,45 23,18 48,38 55,45 21,20 30,16 59,-25 54,-73 116,-142 130,-142 27,0 13,30 -64,132 -24,31 -43,65 -43,75 0,11 14,29 30,41 31,24 40,52 16,52 -8,0 -59,-33 -114,-74 z m -112,-233 c 60,-69 64,-78 46,-114 -9,-18 -16,-37 -16,-43 -1,-6 -16,-29 -35,-50 -27,-33 -36,-38 -48,-28 -16,14 -12,44 11,79 24,38 3,47 -31,13 -39,-38 -77,-41 -77,-5 0,14 7,28 15,31 18,7 20,45 3,62 -9,9 -3,21 27,52 21,22 46,40 55,40 9,0 31,-17 50,-37 z"
       id="path34"
       inkscape:connector-curvature="0"
       style="stroke-width:0.33922976" />
    <path
       d="m 8460,35174 c 0,-3 9,-19 21,-35 l 21,-30 -26,-34 c -15,-19 -36,-40 -48,-46 -29,-15 -135,-5 -157,15 -23,21 -31,20 -31,-4 0,-25 36,-48 97,-65 26,-6 47,-17 46,-24 -2,-6 -4,-17 -5,-23 -2,-7 6,-14 17,-16 15,-2 28,10 50,45 37,59 94,123 109,123 6,-1 33,-20 60,-44 59,-52 58,-57 -24,-144 -61,-65 -76,-102 -41,-102 11,0 21,4 23,9 2,5 31,40 66,79 45,51 68,69 80,65 19,-7 194,-177 217,-211 17,-24 6,-62 -18,-62 -7,0 -44,32 -82,70 -38,39 -72,70 -76,70 -10,0 -29,-49 -29,-75 0,-32 16,-40 46,-24 22,11 27,10 59,-21 19,-19 35,-40 35,-48 0,-8 -20,-34 -45,-59 -43,-42 -50,-63 -21,-63 7,0 23,9 35,19 26,23 96,80 120,98 24,19 47,15 64,-9 8,-13 29,-39 46,-58 17,-19 33,-43 37,-53 13,-39 -56,-79 -87,-51 -16,15 -19,15 -24,2 -4,-9 -5,-35 -3,-59 3,-39 6,-44 28,-47 18,-2 34,-16 53,-48 33,-55 34,-69 3,-89 -13,-9 -27,-23 -30,-32 -9,-22 15,-35 34,-20 41,33 158,89 177,85 10,-2 23,-14 29,-27 7,-13 18,-28 26,-32 42,-27 37,10 -14,95 -161,274 -329,484 -529,662 -174,155 -309,250 -309,218 z m 737,-790 37,-56 -27,-24 c -31,-26 -61,-31 -71,-11 -3,6 -15,26 -26,42 -31,47 -33,54 -19,71 12,15 44,32 61,33 4,1 25,-24 45,-55 z"
       id="path36"
       inkscape:connector-curvature="0"
       style="stroke-width:0.33922976" />
    <path
       d="m 5680,34918 c -22,-18 -25,-28 -24,-87 0,-41 7,-78 16,-96 9,-17 19,-37 22,-45 25,-63 178,-267 315,-419 79,-87 103,-122 96,-139 -10,-27 20,-68 127,-178 l 111,-114 -11,-51 c -7,-28 -12,-64 -12,-80 0,-22 -7,-34 -29,-46 -16,-10 -34,-26 -41,-37 -10,-16 -9,-22 6,-33 12,-9 21,-10 28,-3 15,15 36,12 36,-5 0,-34 38,-55 101,-55 56,0 61,2 70,28 6,17 24,34 48,45 46,21 55,21 84,3 36,-24 101,-31 116,-12 12,15 17,14 47,-9 18,-14 36,-25 39,-25 4,0 24,-12 44,-27 45,-35 70,-50 98,-62 11,-6 24,-15 28,-20 3,-6 14,-11 25,-11 10,0 20,-7 24,-15 3,-8 14,-15 24,-15 11,0 25,-7 32,-15 7,-8 23,-15 35,-15 13,0 25,-7 29,-15 3,-9 18,-15 34,-15 16,0 35,-7 42,-15 7,-8 26,-15 42,-15 16,0 36,-7 44,-15 18,-17 144,-21 174,-5 10,5 23,23 28,40 14,38 -2,40 -54,5 -43,-29 -126,-34 -158,-10 -11,8 -34,15 -52,15 -17,0 -37,7 -44,15 -7,8 -23,15 -35,15 -13,0 -25,7 -29,15 -3,8 -16,15 -30,15 -13,0 -26,7 -30,15 -3,8 -14,15 -25,15 -11,0 -23,5 -26,11 -4,5 -17,15 -28,20 -12,5 -35,18 -52,29 -16,11 -37,23 -45,27 -8,3 -31,19 -51,35 -20,15 -40,28 -44,28 -4,0 -24,14 -45,30 -21,17 -41,30 -45,30 -3,0 -23,12 -42,27 -25,19 -38,24 -41,15 -4,-14 -29,-16 -34,-2 -1,5 -22,22 -45,37 -42,28 -167,128 -213,170 -14,13 -28,23 -32,23 -5,0 -8,9 -8,19 0,16 10,21 57,27 40,5 58,3 61,-5 2,-6 10,-11 18,-11 8,0 14,-4 14,-8 0,-5 27,-28 60,-52 33,-24 60,-47 60,-52 0,-4 7,-8 15,-8 8,0 15,-4 15,-9 0,-5 20,-21 45,-35 25,-15 45,-31 45,-36 0,-6 6,-10 14,-10 8,0 16,-7 20,-15 3,-8 10,-15 17,-15 6,0 28,-13 49,-30 21,-16 41,-30 45,-30 4,0 24,-13 45,-30 38,-30 70,-39 70,-20 0,6 -11,15 -25,20 -14,5 -25,14 -25,20 0,5 -7,10 -15,10 -24,0 -31,31 -10,46 9,7 21,30 26,51 17,78 36,137 46,140 27,9 74,-127 74,-217 1,-70 -4,-80 -37,-80 -60,0 15,-50 173,-115 48,-20 106,-44 128,-53 46,-20 188,-23 205,-6 17,17 14,109 -4,141 -8,16 -17,35 -21,43 -3,8 -11,24 -18,35 -7,11 -25,43 -41,70 -61,103 -211,290 -328,409 -32,32 -58,62 -58,67 0,5 6,26 14,46 7,21 21,65 30,98 10,33 22,74 28,90 5,17 14,49 19,73 5,23 13,51 19,61 5,11 10,30 10,42 0,13 9,33 21,45 20,21 20,23 4,48 -16,25 -16,27 24,84 45,64 51,96 22,112 -34,18 -72,-10 -122,-87 -24,-38 -39,-41 -64,-13 -19,21 -63,18 -100,-7 -11,-7 -30,-13 -42,-13 -12,0 -37,-6 -55,-14 -42,-17 -94,-35 -133,-46 -37,-10 -89,-29 -132,-47 -17,-7 -38,-13 -47,-13 -8,0 -30,-6 -48,-14 -38,-15 -45,-18 -268,-92 -166,-56 -198,-72 -185,-94 10,-16 39,-9 160,35 199,72 270,97 295,102 14,3 34,12 45,19 11,8 29,14 40,14 12,0 25,4 30,9 6,5 26,14 45,19 39,11 94,30 125,43 37,15 110,40 140,48 17,4 41,13 53,20 19,10 28,9 57,-9 39,-24 48,-60 16,-60 -35,0 -33,-19 5,-56 31,-32 39,-35 55,-26 22,14 25,0 10,-40 -4,-13 -16,-50 -25,-83 -10,-33 -22,-73 -28,-90 -5,-16 -14,-48 -19,-70 -14,-60 -30,-95 -43,-95 -15,1 -96,75 -96,89 0,10 85,140 99,151 9,7 29,41 40,67 6,11 15,24 20,28 13,7 15,25 3,25 -4,0 -48,-54 -97,-120 -49,-66 -96,-120 -105,-120 -8,0 -26,10 -40,23 -125,113 -173,128 -113,34 35,-54 43,-67 71,-117 l 22,-41 -20,-26 c -21,-27 -27,-63 -10,-63 5,0 18,10 30,22 26,28 33,21 95,-97 43,-82 46,-92 36,-125 -6,-19 -18,-62 -27,-95 -9,-33 -22,-76 -30,-95 -7,-19 -13,-44 -11,-55 3,-26 -13,-25 -49,3 -16,12 -88,66 -160,120 -395,294 -749,666 -872,918 -38,78 -46,121 -27,158 20,37 20,36 -17,36 -18,-1 -44,-10 -58,-22 z"
       id="path38"
       inkscape:connector-curvature="0"
       style="stroke-width:0.33922976" />
    <path
       d="m 4867,34700 c -14,-16 -37,-32 -51,-36 -14,-3 -29,-10 -32,-15 -3,-5 -18,-9 -34,-9 -16,0 -32,-5 -35,-11 -4,-6 -15,-13 -26,-17 -55,-21 -198,-174 -199,-215 0,-7 -7,-21 -15,-31 -23,-31 -19,-92 7,-110 12,-9 30,-16 40,-16 21,0 23,-13 7,-42 -8,-15 -8,-23 1,-32 9,-8 19,-3 41,24 l 29,34 48,-26 c 134,-76 172,-88 172,-55 0,7 -41,36 -91,65 -50,30 -93,60 -96,68 -3,7 8,35 23,60 16,25 34,54 39,63 39,63 108,161 120,171 17,14 47,10 53,-8 2,-7 -12,-26 -32,-44 -39,-34 -76,-97 -76,-128 0,-11 9,-29 20,-40 22,-22 69,-18 107,9 21,16 63,88 63,110 0,14 25,14 49,-1 10,-6 27,-8 37,-4 17,7 16,10 -12,34 -69,60 -127,107 -135,110 -16,6 -10,42 12,71 20,27 19,51 -1,51 -4,0 -19,-13 -33,-30 z m -85,-96 c 4,-3 -19,-40 -51,-82 -31,-42 -75,-106 -96,-142 -45,-75 -70,-101 -91,-93 -59,22 -20,139 78,236 32,31 65,57 72,57 7,0 19,7 26,15 12,15 51,21 62,9 z m 126,-98 c 2,-10 -6,-45 -19,-77 -20,-54 -24,-60 -48,-57 -22,3 -26,7 -23,32 6,52 54,130 76,123 6,-2 13,-12 14,-21 z"
       id="path40"
       inkscape:connector-curvature="0"
       style="stroke-width:0.33922976" />
    <path
       d="m 3010,32485 c -39,-20 -199,-38 -294,-33 l -86,4 v -57 c 0,-60 12,-82 28,-53 14,26 131,44 264,42 65,-1 120,1 123,4 3,3 2,28 -2,56 -8,50 -8,50 -33,37 z"
       id="path42"
       inkscape:connector-curvature="0"
       style="stroke-width:0.33922976" />
    <path
       d="m 10935,32468 c -2,-7 -6,-26 -7,-42 -3,-26 1,-31 27,-36 62,-14 136,-75 102,-84 -6,-2 -32,-10 -56,-17 -24,-7 -54,-13 -65,-14 -24,0 -45,-48 -45,-106 -1,-20 -10,-62 -21,-94 -25,-73 -25,-96 1,-147 36,-70 73,-97 161,-118 120,-28 210,19 249,130 23,65 23,82 4,119 -12,23 -23,29 -63,35 -28,3 -66,18 -86,31 -40,27 -39,27 -52,-40 -11,-57 -11,-60 6,-56 23,5 111,2 132,-5 15,-4 18,-14 16,-42 -2,-29 -11,-42 -46,-69 -38,-29 -51,-33 -102,-33 -62,0 -118,19 -157,54 -18,15 -23,30 -23,71 0,53 19,83 63,98 28,10 20,37 -13,44 -17,3 -32,9 -35,13 -10,16 45,49 129,75 96,30 169,30 230,0 16,-8 33,-15 38,-15 9,0 11,114 1,123 -3,4 -12,2 -20,-5 -8,-6 -41,-10 -79,-9 -53,2 -74,8 -117,34 -85,52 -137,91 -137,105 0,6 -7,12 -15,12 -9,0 -18,-6 -20,-12 z"
       id="path44"
       inkscape:connector-curvature="0"
       style="stroke-width:0.33922976" />
    <path
       d="m 2895,32283 c -49,-7 -116,-18 -147,-24 -41,-7 -64,-7 -79,2 -30,16 -40,0 -26,-41 21,-60 28,-66 47,-40 13,18 32,25 76,31 33,4 74,11 92,14 20,5 32,4 32,-3 0,-6 -31,-43 -68,-84 -170,-182 -170,-182 -42,-168 47,5 109,14 139,19 29,6 83,11 119,11 h 65 l -6,37 c -8,48 -22,61 -44,41 -33,-27 -194,-60 -206,-41 -3,5 18,34 46,64 120,124 167,180 162,189 -8,13 -48,11 -160,-7 z"
       id="path46"
       inkscape:connector-curvature="0"
       style="stroke-width:0.33922976" />
    <path
       d="m 3077,31928 c -3,-7 -31,-20 -63,-29 -33,-9 -86,-24 -118,-34 -33,-9 -85,-18 -118,-18 l -58,-2 v -33 c 0,-104 54,-210 123,-240 36,-15 148,-16 184,0 56,24 112,77 124,119 14,44 1,137 -28,212 -15,37 -36,48 -46,25 z m 19,-113 c 41,-62 -37,-159 -147,-185 -32,-7 -69,-10 -84,-6 -38,10 -85,64 -85,98 0,24 7,31 43,47 44,20 114,39 185,51 23,4 45,10 49,13 12,12 22,7 39,-18 z"
       id="path48"
       inkscape:connector-curvature="0"
       style="stroke-width:0.33922976" />
    <path
       d="m 10854,31773 c -36,-18 -81,-83 -90,-129 -13,-68 39,-152 119,-194 32,-17 60,-23 119,-23 67,-1 81,3 118,27 95,62 95,201 0,276 -21,17 -44,30 -52,30 -8,0 -23,7 -34,15 -26,19 -139,19 -180,-2 z m 137,-67 c 66,-16 95,-30 132,-64 39,-37 36,-73 -10,-111 -32,-26 -46,-31 -93,-31 -125,0 -223,69 -205,143 9,32 27,49 74,63 46,15 38,15 102,0 z"
       id="path50"
       inkscape:connector-curvature="0"
       style="stroke-width:0.33922976" />
    <path
       d="m 3156,31550 c -16,-10 -61,-28 -100,-40 -39,-12 -87,-29 -107,-37 -20,-8 -57,-15 -83,-15 -54,-1 -63,-10 -42,-40 9,-12 16,-34 16,-48 0,-15 7,-35 15,-46 8,-10 15,-28 15,-40 0,-29 36,-60 52,-47 7,6 30,13 50,17 30,5 41,3 58,-14 33,-33 26,-63 -22,-96 -24,-15 -45,-30 -47,-31 -10,-7 0,-78 14,-93 8,-9 15,-23 15,-31 0,-9 7,-24 15,-35 8,-10 15,-27 15,-36 0,-32 23,-32 50,0 15,18 29,32 33,32 3,0 29,14 57,30 43,26 90,39 90,26 0,-5 -28,-67 -39,-86 -4,-8 -23,-46 -41,-85 -17,-38 -36,-78 -41,-87 -23,-45 5,-50 78,-14 209,103 262,126 282,126 20,0 22,3 16,28 -7,27 -32,62 -45,62 -4,0 -12,-11 -18,-25 -7,-16 -32,-35 -62,-49 -27,-13 -55,-27 -62,-33 -25,-19 -49,-23 -54,-8 -3,8 24,73 60,146 36,72 64,135 61,140 -12,18 -39,8 -193,-67 -146,-72 -156,-75 -169,-58 -7,10 -13,25 -13,33 0,17 68,83 155,149 33,26 69,55 80,65 11,11 30,26 43,34 12,9 22,24 22,35 0,18 -5,20 -37,15 -21,-4 -112,-9 -203,-13 -162,-7 -165,-6 -185,15 -19,23 -19,23 5,42 14,10 36,22 50,25 14,3 39,12 57,20 17,8 38,14 47,14 8,0 30,6 48,14 62,26 103,35 127,29 23,-6 23,-5 16,38 -4,24 -9,47 -12,52 -7,12 -36,7 -67,-13 z m -16,-284 c 0,-18 -15,-36 -31,-36 -18,0 -26,20 -12,33 7,8 43,10 43,3 z"
       id="path52"
       inkscape:connector-curvature="0"
       style="stroke-width:0.33922976" />
    <path
       d="m 10682,31378 c -7,-7 -12,-21 -12,-33 0,-12 -5,-26 -11,-32 -18,-18 -1,-33 29,-27 23,5 100,-18 187,-55 11,-5 40,-17 65,-27 25,-10 53,-24 62,-32 25,-21 49,-11 63,28 7,19 21,56 31,82 17,46 17,48 -1,68 -10,11 -29,20 -42,20 -24,0 -31,-14 -13,-25 14,-9 12,-47 -5,-69 -14,-18 -17,-18 -62,-3 -27,9 -73,25 -103,37 -30,12 -69,26 -86,31 -17,5 -39,18 -49,29 -21,23 -36,25 -53,8 z"
       id="path54"
       inkscape:connector-curvature="0"
       style="stroke-width:0.33922976" />
    <path
       d="m 10655,31193 c -65,-18 -105,-82 -105,-168 0,-61 2,-67 37,-106 67,-74 107,-93 198,-93 72,-1 84,2 112,24 35,28 73,98 73,134 0,66 -62,146 -147,190 -34,17 -134,29 -168,19 z m 106,-80 c 30,-9 61,-22 70,-30 8,-7 20,-13 25,-13 5,0 20,-12 33,-25 34,-36 35,-100 1,-125 -59,-45 -163,-30 -246,37 -72,56 -74,110 -8,154 36,23 57,24 125,2 z"
       id="path56"
       inkscape:connector-curvature="0"
       style="stroke-width:0.33922976" />
    <path
       d="m 10450,30874 c -20,-36 -21,-64 -1,-64 5,0 13,4 16,10 6,9 62,-17 153,-72 57,-35 22,-46 -195,-66 -45,-4 -85,-10 -88,-14 -9,-8 4,-48 15,-48 8,0 88,-47 158,-92 15,-10 34,-21 42,-26 51,-27 80,-50 89,-69 6,-13 14,-23 18,-23 11,1 39,40 47,68 6,19 4,22 -18,22 -14,0 -48,14 -76,30 -28,17 -54,30 -58,30 -4,1 -20,12 -37,25 -34,28 -30,31 65,39 123,12 233,31 237,42 4,11 -15,30 -48,49 -104,58 -257,158 -267,174 -17,29 -27,26 -52,-15 z"
       id="path58"
       inkscape:connector-curvature="0"
       style="stroke-width:0.33922976" />
    <path
       d="m 3582,30686 c -6,-14 -41,-43 -79,-66 -37,-23 -95,-59 -128,-80 -33,-21 -72,-39 -87,-39 -35,-1 -35,-15 0,-66 31,-44 69,-62 58,-27 -6,16 3,27 41,54 26,18 56,38 65,43 9,6 52,31 95,58 42,26 85,47 95,47 24,0 23,14 -4,61 -25,45 -40,49 -56,15 z"
       id="path60"
       inkscape:connector-curvature="0"
       style="stroke-width:0.33922976" />
    <path
       d="m 10268,30569 c -10,-5 -18,-15 -18,-20 0,-6 -9,-22 -20,-36 -24,-30 -18,-43 18,-43 32,0 84,-32 93,-57 7,-19 -40,-97 -63,-106 -15,-5 -73,35 -105,72 l -23,26 -20,-25 c -11,-14 -27,-37 -36,-52 -14,-28 -14,-28 14,-28 27,0 91,-35 139,-76 12,-11 48,-37 79,-59 31,-22 62,-52 70,-67 8,-16 16,-28 19,-28 2,0 20,20 40,45 24,28 35,51 31,61 -5,13 -9,14 -21,4 -13,-11 -25,-7 -71,25 -76,52 -78,60 -41,113 18,25 38,47 45,49 16,7 119,-71 127,-97 3,-11 10,-20 14,-20 23,0 76,73 67,95 -3,8 -13,11 -24,8 -26,-6 -269,172 -278,205 -7,25 -11,26 -36,11 z"
       id="path62"
       inkscape:connector-curvature="0"
       style="stroke-width:0.33922976" />
    <path
       d="m 3625,30490 c -39,-27 -98,-70 -133,-95 -35,-26 -79,-49 -98,-52 -19,-3 -34,-8 -34,-10 0,-12 31,-61 49,-77 21,-19 21,-19 32,12 7,21 34,49 79,82 71,53 95,62 86,32 -11,-33 -37,-126 -46,-162 -4,-19 -13,-51 -19,-70 -33,-105 -17,-99 236,87 44,32 78,50 87,47 26,-10 29,23 5,55 -26,35 -44,40 -52,12 -5,-19 -138,-131 -156,-131 -21,0 -3,94 36,190 17,42 22,121 8,126 -6,2 -42,-18 -80,-46 z"
       id="path64"
       inkscape:connector-curvature="0"
       style="stroke-width:0.33922976" />
    <path
       d="m 9999,30226 c -27,-26 -51,-63 -62,-93 -18,-49 -18,-51 3,-104 64,-161 242,-220 355,-116 58,53 69,98 33,140 -13,15 -29,27 -36,27 -14,0 -16,-26 -2,-35 20,-12 9,-53 -22,-84 -26,-25 -40,-31 -76,-31 -70,0 -155,58 -193,132 -24,47 -24,55 3,94 27,39 60,56 93,48 41,-10 49,5 19,37 -38,40 -63,37 -115,-15 z"
       id="path66"
       inkscape:connector-curvature="0"
       style="stroke-width:0.33922976" />
    <path
       d="m 3874,30201 c -47,-28 -74,-80 -74,-138 0,-36 -7,-60 -23,-84 -27,-41 -56,-47 -82,-19 -19,21 -19,23 -2,52 24,41 9,53 -31,25 -45,-31 -49,-52 -17,-93 32,-41 68,-58 112,-50 74,11 120,76 130,181 4,43 12,70 24,81 35,32 86,-6 61,-46 -16,-26 -15,-30 8,-30 10,0 23,-6 27,-14 4,-7 25,-21 46,-31 21,-10 37,-24 37,-34 0,-24 -200,-217 -232,-225 -36,-8 -35,-18 8,-66 40,-44 54,-50 54,-20 0,24 209,240 232,240 21,0 48,-37 41,-56 -9,-23 7,-37 25,-21 10,8 25,17 35,20 25,9 14,25 -92,135 -89,91 -107,102 -128,81 -8,-8 -13,-8 -18,0 -3,6 1,14 9,17 22,8 19,34 -7,65 -44,52 -91,62 -143,30 z"
       id="path68"
       inkscape:connector-curvature="0"
       style="stroke-width:0.33922976" />
    <path
       d="m 9732,29934 c -53,-53 -134,-126 -179,-162 -89,-72 -102,-98 -61,-126 26,-19 38,-13 38,20 0,16 8,28 24,36 28,12 21,18 111,-87 33,-39 62,-72 65,-75 24,-22 50,-67 50,-86 0,-31 3,-30 56,8 49,35 59,68 20,68 -16,0 -36,15 -62,48 -21,26 -54,64 -73,85 -19,21 -46,53 -60,72 -23,34 -24,36 -6,55 10,11 29,20 42,20 20,0 23,4 21,31 -2,19 2,34 10,37 20,6 242,-218 242,-245 0,-40 25,-30 94,37 l 69,67 -19,32 c -23,40 -42,40 -46,0 -2,-19 -12,-38 -25,-46 -21,-14 -25,-12 -70,31 -40,38 -46,48 -37,63 6,10 20,19 30,21 44,7 47,11 22,37 -26,27 -53,32 -65,11 -4,-7 -17,-18 -29,-24 -18,-9 -26,-6 -52,21 -18,18 -32,40 -32,49 0,21 27,37 50,31 28,-7 32,14 9,42 -13,14 -26,25 -31,25 -5,0 -52,-43 -106,-96 z"
       id="path70"
       inkscape:connector-curvature="0"
       style="stroke-width:0.33922976" />
    <path
       d="m 4266,29840 c -26,-53 -199,-238 -223,-239 -40,-2 -37,-23 10,-68 25,-23 50,-43 55,-43 6,0 9,14 8,30 -1,26 16,50 99,145 55,62 108,114 118,114 31,1 31,30 1,62 -35,37 -49,37 -68,-1 z"
       id="path72"
       inkscape:connector-curvature="0"
       style="stroke-width:0.33922976" />
    <path
       d="m 4363,29756 c -24,-25 -21,-36 8,-36 10,0 30,-11 45,-24 32,-27 35,-19 -44,-117 -90,-112 -127,-151 -152,-161 l -25,-10 45,-39 c 54,-47 70,-49 70,-10 0,21 24,58 91,142 51,63 93,116 95,118 2,2 15,-2 29,-9 18,-9 25,-22 25,-42 0,-18 5,-28 15,-28 8,0 15,5 15,10 0,6 7,10 15,10 8,0 15,-6 15,-12 0,-11 -66,-115 -81,-128 -3,-3 -9,-12 -12,-20 -4,-8 -18,-33 -32,-55 -48,-79 -27,-159 52,-199 39,-20 61,-20 104,-2 43,18 68,45 138,148 53,76 94,115 78,73 -10,-24 1,-37 21,-26 16,8 82,-10 82,-22 0,-9 -32,-73 -50,-102 -11,-16 -24,-39 -29,-51 -22,-49 -83,-134 -96,-134 -29,0 -14,-26 35,-56 27,-18 51,-29 54,-26 3,3 6,20 6,38 0,21 16,60 43,106 24,40 46,80 50,88 17,36 44,74 59,84 20,12 46,-6 60,-43 l 9,-26 18,24 c 20,26 51,24 51,-3 0,-27 -131,-285 -152,-300 -32,-23 -16,-41 67,-81 l 76,-37 25,23 c 13,12 24,28 24,35 0,17 -23,30 -28,16 -5,-17 -47,-15 -61,2 -7,9 -9,25 -5,42 7,29 42,94 51,94 17,0 43,-24 43,-40 0,-31 24,-23 44,14 20,37 15,56 -13,56 -10,0 -25,8 -35,18 -15,17 -15,21 1,53 29,58 44,63 77,27 l 29,-31 18,24 c 10,13 17,28 16,33 -2,5 -70,43 -153,85 -150,77 -369,205 -380,222 -10,17 -24,-1 -24,-31 0,-19 -22,-62 -65,-126 -71,-105 -101,-134 -137,-134 -27,0 -68,38 -67,61 1,45 152,269 180,269 33,0 21,24 -28,58 -63,42 -163,121 -220,171 -25,23 -50,41 -57,41 -6,0 -21,-11 -33,-24 z"
       id="path74"
       inkscape:connector-curvature="0"
       style="stroke-width:0.33922976" />
    <path
       d="m 9302,29571 c -38,-30 -41,-51 -9,-51 16,-1 36,-20 72,-69 28,-38 50,-75 50,-82 0,-18 -47,-15 -95,5 -49,20 -195,66 -209,66 -21,0 -11,-38 24,-83 19,-25 35,-49 35,-52 0,-4 14,-24 30,-45 17,-21 30,-41 30,-44 0,-3 14,-25 30,-48 17,-23 30,-54 30,-70 0,-35 13,-35 57,-2 38,29 43,51 11,56 -25,3 -121,130 -116,152 2,11 19,8 83,-11 44,-14 96,-31 115,-39 50,-19 107,-27 114,-16 3,6 -39,78 -94,160 -55,83 -100,159 -100,170 0,31 -23,32 -58,3 z"
       id="path76"
       inkscape:connector-curvature="0"
       style="stroke-width:0.33922976" />
    <path
       d="m 8930,29336 c -87,-28 -124,-79 -123,-171 1,-90 44,-167 121,-216 74,-47 155,-36 217,30 28,31 30,37 30,114 0,65 -5,91 -23,124 -30,57 -84,107 -131,121 -44,14 -44,14 -91,-2 z m 51,-60 c 59,-25 116,-100 138,-183 26,-95 -56,-147 -139,-90 -18,12 -50,47 -71,77 -60,87 -60,162 -2,194 35,19 34,19 74,2 z"
       id="path78"
       inkscape:connector-curvature="0"
       style="stroke-width:0.33922976" />
    <path
       d="m 8642,29190 c -48,-26 -48,-26 -13,-55 17,-15 31,-32 31,-37 0,-6 12,-36 26,-67 14,-31 35,-76 46,-101 11,-25 27,-57 34,-71 10,-20 10,-29 2,-37 -9,-9 -9,-15 0,-24 10,-10 19,-9 45,4 17,9 40,19 50,22 23,7 22,32 -1,38 -11,3 -28,25 -40,49 -90,190 -112,244 -110,268 4,33 -22,37 -70,11 z"
       id="path80"
       inkscape:connector-curvature="0"
       style="stroke-width:0.33922976" />
    <path
       d="m 8520,29135 c -14,-7 -36,-18 -50,-24 -41,-17 -124,-49 -142,-55 -24,-7 -23,-48 1,-70 18,-17 20,-16 33,11 14,31 49,42 65,21 10,-12 36,-72 70,-163 8,-22 22,-52 30,-68 8,-15 13,-40 11,-55 -2,-19 2,-28 15,-30 17,-3 107,33 107,43 0,2 -12,11 -27,19 -18,9 -34,31 -46,63 -11,26 -34,85 -53,131 -21,48 -33,91 -29,102 7,23 43,36 58,21 19,-19 37,-12 37,13 0,26 -24,57 -43,55 -7,0 -23,-7 -37,-14 z"
       id="path82"
       inkscape:connector-curvature="0"
       style="stroke-width:0.33922976" />
    <path
       d="m 5561,29063 c -97,-19 -182,-181 -152,-291 17,-64 34,-88 81,-112 58,-30 118,-26 167,9 137,99 161,290 46,364 -39,26 -99,38 -142,30 z m 107,-69 c 18,-21 22,-37 22,-93 0,-96 -43,-187 -100,-211 -25,-10 -33,-9 -60,10 -41,29 -50,49 -50,113 0,86 55,190 110,210 24,8 53,-3 78,-29 z"
       id="path84"
       inkscape:connector-curvature="0"
       style="stroke-width:0.33922976" />
    <path
       d="m 8186,29013 c -3,-4 -6,-95 -6,-203 0,-178 -2,-198 -18,-213 -10,-10 -21,-17 -25,-17 -14,0 -34,47 -103,250 -20,58 -40,109 -44,114 -18,19 -39,-43 -49,-143 -6,-57 -11,-107 -11,-112 0,-5 -8,-9 -19,-9 -16,0 -43,28 -61,65 -17,33 -103,155 -110,155 -5,0 -10,-8 -12,-17 -3,-19 8,-172 20,-278 5,-38 7,-78 4,-87 -8,-32 -39,-19 -87,35 -65,71 -70,85 -51,132 9,20 16,50 16,65 0,36 -39,93 -70,101 -31,8 -162,-1 -174,-12 -5,-4 1,-21 13,-38 21,-29 22,-37 48,-278 3,-33 1,-58 -6,-66 -16,-20 -3,-27 50,-27 52,0 68,12 48,36 -14,17 -29,102 -22,121 9,23 21,14 78,-57 56,-70 56,-70 105,-70 40,0 120,21 139,37 2,1 -3,11 -11,20 -29,33 -50,145 -29,157 5,3 27,-22 50,-57 58,-88 68,-100 82,-95 15,5 38,97 39,155 0,83 29,53 66,-69 8,-26 20,-50 26,-54 18,-12 88,-5 119,11 15,8 37,15 48,15 25,0 36,17 23,33 -11,13 -16,46 -14,88 2,28 40,53 66,43 15,-6 41,-39 61,-79 15,-29 66,-31 96,-5 19,17 21,22 9,27 -8,4 -28,20 -44,37 -36,38 -186,245 -186,256 0,11 -47,40 -54,33 z m 84,-204 c 0,-20 -24,-26 -35,-9 -4,6 -4,17 -1,25 7,20 36,7 36,-16 z m -716,-61 c 17,-67 -19,-126 -50,-83 -14,19 -20,126 -7,138 13,14 48,-21 57,-55 z"
       id="path86"
       inkscape:connector-curvature="0"
       style="stroke-width:0.33922976" />
    <path
       d="m 5850,28970 c 0,-6 4,-19 9,-29 7,-12 5,-32 -4,-62 -19,-60 -43,-145 -55,-197 -6,-24 -20,-52 -31,-63 -10,-10 -19,-23 -19,-27 0,-12 98,-45 116,-38 12,4 13,10 4,26 -13,25 -4,106 16,138 18,27 38,28 64,2 26,-26 40,-18 40,24 0,31 -3,34 -36,40 -43,9 -47,19 -30,76 16,53 33,60 70,25 34,-31 44,-31 52,0 8,34 -1,55 -25,55 -12,0 -38,6 -58,14 -56,21 -113,29 -113,16 z"
       id="path88"
       inkscape:connector-curvature="0"
       style="stroke-width:0.33922976" />
    <path
       d="m 6224,28854 c 4,-24 1,-62 -9,-97 -8,-32 -15,-72 -15,-88 0,-37 -28,-128 -46,-150 -16,-18 -1,-39 28,-39 9,0 29,-5 43,-12 32,-14 56,2 36,26 -13,15 -7,114 10,171 5,17 13,61 18,99 7,45 16,73 26,78 24,14 18,38 -9,38 -13,0 -38,3 -56,6 l -32,7 z"
       id="path90"
       inkscape:connector-curvature="0"
       style="stroke-width:0.33922976" />
    <path
       d="m 6406,28838 c -11,-56 -17,-99 -26,-207 -6,-68 -16,-124 -25,-138 -22,-32 -9,-50 36,-55 46,-4 55,3 39,31 -11,21 -12,117 -1,166 7,34 35,45 45,18 3,-10 14,-30 23,-45 10,-15 37,-58 61,-97 49,-78 68,-99 82,-85 10,10 28,133 39,259 4,44 13,90 21,102 18,28 8,39 -42,48 -33,6 -38,5 -38,-12 0,-10 5,-24 11,-30 8,-8 8,-31 0,-84 -6,-41 -12,-85 -13,-99 -2,-14 -6,-25 -10,-25 -4,0 -44,60 -90,134 -46,74 -88,136 -95,139 -7,2 -14,-7 -17,-20 z"
       id="path92"
       inkscape:connector-curvature="0"
       style="stroke-width:0.33922976" />
    <path
       d="m 7120,28823 c -35,-13 -72,-47 -90,-83 -30,-58 -28,-190 3,-245 65,-114 210,-127 285,-25 12,16 29,57 38,92 15,57 15,66 -1,124 -18,67 -62,123 -107,136 -29,8 -108,8 -128,1 z m 102,-55 c 45,-40 58,-79 58,-173 0,-82 -1,-88 -29,-116 -17,-16 -40,-29 -54,-29 -63,0 -117,92 -117,197 0,80 40,143 90,143 15,0 38,-10 52,-22 z"
       id="path94"
       inkscape:connector-curvature="0"
       style="stroke-width:0.33922976" />
    <path
       d="m 6770,28806 c 0,-8 5,-18 11,-22 15,-9 4,-299 -12,-340 -13,-35 0,-44 62,-44 54,0 65,7 44,30 -23,26 -17,173 7,178 9,2 25,-7 37,-19 17,-19 21,-20 26,-6 4,8 5,28 3,44 -3,26 -6,28 -40,25 -32,-3 -38,0 -43,21 -4,13 -5,39 -3,58 4,40 31,49 77,26 28,-14 29,-14 35,15 3,17 3,34 0,39 -3,5 -50,9 -105,9 -79,0 -99,-3 -99,-14 z"
       id="path96"
       inkscape:connector-curvature="0"
       style="stroke-width:0.33922976" />
    <path
       d="m 5506,28192 c 3,-16 1,-39 -5,-51 -6,-11 -16,-40 -21,-63 -11,-56 -34,-116 -48,-130 -7,-7 -12,-20 -12,-29 0,-18 9,-22 69,-34 l 34,-7 -7,34 c -4,22 -1,41 7,53 17,22 47,14 47,-12 1,-53 115,-152 143,-124 8,8 4,18 -15,38 -15,16 -32,39 -38,53 -5,14 -22,45 -35,69 -31,54 -31,69 -2,82 12,5 42,21 67,34 25,14 56,25 68,25 35,0 22,20 -23,35 -41,15 -68,8 -79,-20 -3,-8 -11,-15 -17,-15 -7,0 -20,-7 -30,-16 -35,-31 -54,13 -22,48 25,28 6,52 -45,56 -41,3 -42,3 -36,-26 z"
       id="path98"
       inkscape:connector-curvature="0"
       style="stroke-width:0.33922976" />
    <path
       d="m 8365,28204 c -15,-15 -15,-18 4,-38 12,-12 21,-30 21,-39 0,-9 6,-31 14,-49 23,-55 39,-111 45,-153 6,-37 8,-40 36,-37 32,4 75,27 75,41 0,4 -11,13 -25,19 -14,6 -25,19 -25,28 0,18 -26,102 -47,153 -8,19 -11,46 -8,62 6,28 5,29 -33,29 -24,0 -47,-7 -57,-16 z"
       id="path100"
       inkscape:connector-curvature="0"
       style="stroke-width:0.33922976" />
    <path
       d="m 8038,28123 c -22,-5 -22,-12 -4,-39 20,-29 47,-147 36,-158 -8,-8 -203,114 -216,136 -3,4 -14,8 -26,8 -19,0 -20,-4 -14,-62 4,-35 14,-94 23,-131 8,-39 12,-83 9,-103 l -7,-34 h 41 c 51,0 58,15 31,69 -25,49 -39,131 -23,131 6,0 58,-31 116,-70 57,-38 114,-70 126,-70 25,0 26,-7 -9,174 -14,78 -17,114 -10,122 23,27 -17,42 -73,27 z"
       id="path102"
       inkscape:connector-curvature="0"
       style="stroke-width:0.33922976" />
    <path
       d="m 6003,27974 c -37,-59 -83,-124 -101,-145 -19,-21 -31,-43 -27,-49 3,-5 24,-10 46,-10 36,0 39,2 39,28 0,41 30,64 76,60 38,-3 39,-4 49,-58 10,-53 11,-54 54,-67 25,-7 47,-11 50,-8 2,3 -3,21 -12,39 -9,19 -21,63 -28,98 -27,145 -47,213 -62,216 -11,2 -38,-31 -84,-104 z m 55,-46 c -6,-18 -28,-21 -28,-4 0,9 7,16 16,16 9,0 14,-5 12,-12 z"
       id="path104"
       inkscape:connector-curvature="0"
       style="stroke-width:0.33922976" />
    <path
       d="m 6450,28021 c 0,-7 4,-21 10,-31 13,-24 -4,-191 -24,-252 -9,-23 -14,-44 -12,-45 2,-2 48,-6 104,-10 96,-6 100,-5 112,16 6,13 9,29 6,38 -6,13 -9,13 -31,-1 -32,-21 -72,-20 -83,2 -14,27 1,232 17,242 19,11 6,40 -17,40 -11,0 -34,3 -51,6 -21,4 -31,3 -31,-5 z"
       id="path106"
       inkscape:connector-curvature="0"
       style="stroke-width:0.33922976" />
    <path
       d="m 7406,28008 c -2,-7 -8,-29 -15,-48 -16,-45 -39,-124 -52,-175 -5,-22 -19,-52 -29,-67 -11,-15 -20,-30 -20,-33 0,-3 23,-5 50,-5 50,0 64,12 40,36 -13,13 1,54 23,73 9,7 28,11 44,9 22,-2 34,-14 55,-53 15,-27 32,-50 37,-49 6,1 22,2 36,3 35,2 41,24 13,54 -13,14 -34,47 -46,74 -13,26 -28,55 -33,63 -5,8 -20,38 -34,67 -22,43 -41,63 -61,63 -3,0 -6,-6 -8,-12 z m 44,-158 c 0,-6 -9,-10 -20,-10 -13,0 -20,7 -20,20 0,18 3,19 20,10 11,-6 20,-15 20,-20 z"
       id="path108"
       inkscape:connector-curvature="0"
       style="stroke-width:0.33922976" />
    <path
       d="m 7074,28003 c -26,-3 -33,-10 -38,-34 -6,-34 -42,-89 -57,-89 -13,0 -59,77 -59,100 0,18 -6,20 -55,20 -30,0 -55,-3 -55,-6 0,-3 15,-23 33,-45 71,-82 98,-169 81,-255 l -6,-31 h 57 c 53,0 56,1 49,21 -4,12 -9,46 -11,77 -4,50 -1,62 28,110 18,30 45,68 62,86 25,27 30,56 9,51 -4,0 -21,-3 -38,-5 z"
       id="path110"
       inkscape:connector-curvature="0"
       style="stroke-width:0.33922976" />
    <path
       d="m 9546,33416 c -9,-19 -16,-39 -16,-45 0,-17 -19,-13 -43,9 -54,51 -107,26 -107,-51 0,-42 -10,-48 -53,-28 -17,8 -30,8 -43,1 -26,-14 -54,-96 -54,-159 0,-44 -4,-54 -22,-64 -55,-28 -68,-50 -68,-110 0,-57 0,-57 -44,-83 -46,-27 -56,-49 -56,-128 0,-25 -8,-51 -22,-71 -16,-22 -25,-53 -29,-97 -3,-36 -12,-80 -20,-97 -11,-28 -11,-38 1,-65 7,-18 14,-66 15,-106 2,-72 2,-74 -34,-108 -39,-37 -62,-42 -81,-19 -7,8 -21,15 -31,15 -10,0 -21,5 -24,11 -4,5 -17,15 -28,20 -32,15 -116,67 -127,79 -3,3 -33,27 -67,53 -93,71 -216,209 -304,341 -43,65 -79,124 -79,131 0,7 -7,18 -15,25 -8,7 -15,20 -15,29 0,9 -12,27 -25,40 -19,17 -25,19 -25,8 0,-9 5,-19 10,-22 13,-8 13,-42 1,-50 -6,-3 -16,5 -23,18 -7,14 -24,44 -37,68 -30,55 -62,99 -73,99 -13,0 -9,-53 7,-84 16,-31 20,-56 7,-56 -4,0 -25,23 -46,51 -40,54 -59,59 -64,16 -2,-16 -15,-35 -33,-47 -25,-18 -29,-28 -29,-67 0,-25 5,-64 12,-86 11,-36 10,-41 -10,-57 -26,-22 -27,-36 -6,-101 16,-49 16,-51 -5,-65 -30,-22 -27,-67 9,-119 25,-37 28,-48 20,-70 -8,-22 -5,-36 15,-77 14,-27 25,-66 25,-85 0,-39 40,-117 64,-126 8,-3 17,-20 21,-38 4,-18 20,-50 36,-72 16,-22 29,-44 29,-50 0,-5 20,-32 45,-58 25,-26 45,-53 45,-58 0,-6 11,-22 25,-36 13,-15 29,-42 35,-60 6,-20 27,-44 50,-60 22,-15 42,-35 45,-45 6,-20 38,-43 74,-55 12,-4 39,-18 58,-31 20,-13 47,-24 60,-24 13,0 35,-7 49,-16 33,-22 102,-31 199,-24 22,1 58,-3 80,-11 22,-7 75,-12 118,-11 73,2 77,1 77,-20 0,-19 -55,-137 -119,-255 -26,-49 -134,-143 -255,-224 -127,-85 -165,-121 -166,-154 0,-11 -11,-36 -23,-55 -27,-40 -41,-110 -38,-190 3,-65 22,-100 55,-100 13,0 29,-7 36,-15 7,-8 21,-15 30,-15 28,0 118,48 159,85 20,18 46,35 58,39 27,8 71,63 104,129 13,27 30,60 38,74 18,34 149,166 182,184 63,34 240,119 247,119 4,0 57,21 117,47 215,92 347,188 448,327 67,91 84,129 133,306 37,136 107,249 178,288 19,11 63,19 116,22 78,5 85,7 82,25 -3,18 -93,115 -107,115 -4,0 -5,-16 -3,-36 l 3,-36 -66,-22 c -36,-12 -83,-34 -103,-50 -53,-40 -114,-139 -146,-236 -5,-14 -18,-50 -30,-80 -11,-30 -30,-82 -42,-115 -70,-203 -163,-308 -358,-405 -36,-18 -74,-37 -84,-42 -11,-6 -31,-14 -45,-18 -14,-5 -51,-18 -81,-30 -30,-11 -84,-30 -120,-42 -36,-11 -80,-28 -99,-37 -46,-22 -142,-117 -176,-175 -15,-25 -31,-46 -36,-46 -5,0 -9,-5 -9,-11 0,-6 -13,-28 -30,-49 -16,-21 -30,-41 -30,-44 0,-19 -47,-67 -74,-76 -17,-6 -44,-28 -60,-50 -34,-46 -50,-54 -75,-38 -15,9 -24,7 -50,-11 -38,-27 -94,-26 -99,2 -2,11 14,39 38,68 l 41,49 -33,13 -33,14 33,30 c 28,27 31,35 22,57 -11,30 8,52 74,87 210,109 370,303 500,604 7,17 20,46 28,65 22,51 29,93 19,110 -8,11 -24,1 -79,-53 -72,-69 -102,-83 -102,-47 0,30 -26,35 -66,14 -33,-18 -35,-18 -70,1 -31,17 -39,17 -67,6 -50,-21 -97,-26 -97,-10 -1,32 -15,40 -46,24 -39,-20 -66,-19 -87,5 -12,14 -29,20 -57,20 -33,0 -42,4 -50,24 -11,30 -57,66 -84,66 -12,0 -32,7 -45,16 -20,14 -22,23 -18,57 7,48 -6,77 -33,77 -23,0 -32,14 -39,60 -5,31 -11,37 -51,50 -67,23 -73,28 -66,65 5,26 1,37 -25,64 -29,31 -30,33 -15,57 15,22 15,25 -4,44 -11,11 -26,20 -32,20 -16,1 -58,35 -58,47 0,5 18,27 40,48 l 41,40 -68,61 c -60,54 -66,63 -54,78 7,9 27,20 44,24 17,4 32,12 34,18 2,5 -15,40 -38,78 -45,76 -46,99 -1,90 45,-9 46,9 4,57 -78,89 -89,119 -47,119 29,0 55,-15 137,-78 58,-45 92,-50 65,-9 -8,12 -17,34 -21,50 -11,47 19,32 49,-25 42,-79 48,-87 77,-97 16,-6 28,-15 28,-22 0,-6 14,-31 30,-56 17,-24 30,-46 30,-49 0,-13 94,-126 161,-193 119,-119 301,-225 464,-271 51,-15 188,-61 223,-76 18,-8 39,-14 47,-14 8,0 29,-6 47,-14 18,-8 69,-29 113,-47 84,-35 190,-93 200,-109 12,-20 45,-11 45,12 0,27 57,102 146,193 87,88 144,134 217,174 50,28 68,32 129,32 59,0 77,-4 110,-26 22,-15 42,-24 45,-22 2,3 -9,20 -26,39 -22,26 -44,38 -85,48 -114,27 -195,-3 -308,-114 -46,-44 -80,-71 -87,-67 -17,11 -2,106 45,292 10,40 14,125 14,305 0,168 5,280 15,344 8,52 15,141 15,197 0,57 4,105 10,108 14,9 12,65 -2,66 -46,4 -90,-30 -120,-93 -17,-37 -28,-48 -43,-46 -13,2 -22,13 -25,32 -3,16 -11,31 -17,34 -18,5 -17,-40 2,-85 8,-19 15,-49 15,-65 0,-35 25,-98 39,-98 6,0 13,12 17,28 10,48 77,212 85,212 12,0 12,-2 9,-165 -1,-80 -6,-146 -12,-153 -6,-7 -15,-88 -19,-180 -5,-92 -13,-210 -18,-262 -6,-52 -11,-123 -11,-157 0,-68 -17,-123 -80,-253 -49,-102 -102,-196 -121,-212 -21,-18 -31,-16 -129,22 -30,12 -68,25 -85,30 -16,4 -48,15 -70,24 -22,9 -49,20 -60,25 -11,4 -42,19 -70,32 -46,23 -50,28 -50,60 0,20 -5,42 -11,50 -20,26 -25,66 -9,79 20,17 19,24 -10,70 -30,48 -31,60 -4,94 22,28 20,72 -7,111 -32,45 -4,80 41,51 13,-9 27,-16 31,-16 6,0 1,76 -12,178 -6,48 -5,52 14,52 11,0 32,-14 46,-31 35,-41 47,-30 29,30 -8,27 -13,77 -11,113 3,56 5,63 25,66 14,2 26,-4 33,-17 6,-12 16,-21 22,-21 7,0 8,35 3,119 -3,66 -4,129 0,140 10,34 57,27 101,-14 47,-45 60,-35 45,35 -9,42 -8,56 4,80 20,39 39,38 86,-5 22,-19 43,-35 48,-35 4,0 12,24 17,53 7,43 13,53 32,55 25,4 26,6 11,35 -26,48 -61,49 -83,3 z"
       id="path112"
       inkscape:connector-curvature="0"
       style="stroke-width:0.33922976" />
    <path
       d="m 3987,33195 -36,-35 1,-147 c 1,-102 -2,-155 -11,-171 -8,-16 -10,-40 -6,-73 6,-41 3,-58 -16,-97 -19,-38 -24,-64 -25,-132 0,-72 -5,-93 -27,-136 -50,-96 -69,-176 -64,-272 5,-109 24,-177 74,-273 105,-200 245,-329 563,-518 85,-50 162,-96 170,-101 8,-6 22,-13 30,-17 42,-19 272,-161 320,-198 79,-61 166,-156 243,-263 37,-51 67,-95 67,-97 0,-2 13,-23 29,-47 47,-69 131,-230 193,-368 57,-126 55,-125 117,-86 90,57 147,164 123,230 -7,18 -12,44 -12,57 0,14 -5,30 -12,37 -6,6 -15,33 -19,59 -8,47 -15,84 -44,228 -30,144 -38,307 -29,548 24,659 11,759 -133,1032 -24,45 -181,197 -236,229 -55,31 -84,28 -94,-12 -3,-15 -24,-70 -45,-122 -63,-151 -78,-216 -78,-332 0,-104 24,-229 64,-338 10,-25 21,-57 25,-71 5,-14 13,-34 19,-45 5,-10 41,-82 79,-159 38,-77 87,-174 107,-215 38,-73 57,-114 82,-175 6,-16 19,-46 27,-65 22,-52 51,-127 86,-230 100,-289 115,-368 89,-479 -12,-52 -42,-92 -56,-75 -5,5 -16,29 -26,54 -45,111 -66,158 -124,275 -27,55 -60,118 -74,140 -13,22 -28,47 -32,55 -29,61 -125,195 -183,255 -78,81 -127,121 -263,214 -212,144 -255,174 -349,245 -221,166 -375,360 -441,556 -29,85 -32,249 -5,313 49,121 97,189 198,284 165,154 317,219 454,193 58,-11 71,-18 117,-64 79,-80 91,-127 81,-313 -11,-211 -10,-275 11,-411 11,-70 24,-15 25,101 0,67 4,145 10,172 5,28 14,79 19,115 33,224 38,253 51,261 16,10 114,1 141,-12 9,-5 25,-9 36,-9 10,0 39,-11 63,-25 24,-13 53,-29 65,-34 31,-14 129,-107 168,-159 87,-119 150,-294 182,-506 14,-87 16,-153 11,-340 -3,-127 -8,-242 -12,-256 -13,-58 -17,-397 -5,-485 7,-49 15,-124 17,-165 3,-41 10,-81 16,-88 6,-8 14,-35 18,-60 4,-26 13,-67 20,-92 6,-25 13,-51 15,-57 2,-7 10,-10 19,-7 11,5 13,15 9,48 -4,22 -11,50 -17,61 -6,11 -14,40 -18,65 -4,25 -12,74 -18,110 -32,197 -31,337 6,665 25,215 24,653 -1,785 -10,52 -25,110 -32,128 -8,18 -14,39 -14,47 0,44 -109,234 -174,303 -65,70 -232,182 -272,182 -7,0 -25,6 -41,14 -44,22 -162,46 -224,46 -50,0 -58,3 -90,36 -18,20 -59,47 -89,60 -47,22 -67,25 -147,22 -75,-2 -95,1 -110,15 -11,9 -48,21 -83,25 -65,9 -67,11 -112,76 -10,14 -39,31 -67,41 -28,9 -60,24 -73,34 -35,27 -104,51 -147,51 -30,0 -46,-7 -74,-35 z m 213,-76 c 0,-15 -145,-128 -154,-119 -13,13 27,71 81,119 44,38 49,40 60,24 7,-9 13,-20 13,-24 z m 78,-80 c 3,-35 1,-38 -73,-84 -42,-26 -93,-62 -113,-81 -41,-38 -58,-39 -55,-3 2,16 32,51 85,100 46,42 90,84 98,93 26,29 55,16 58,-25 z m 206,-75 c 9,-8 14,-19 12,-23 -3,-4 -39,-25 -81,-46 -109,-58 -229,-135 -285,-185 -51,-45 -107,-90 -114,-90 -3,0 -6,10 -6,23 0,24 73,122 137,182 122,115 292,185 337,139 z"
       id="path114"
       inkscape:connector-curvature="0"
       style="stroke-width:0.33922976" />
    <path
       d="m 10112,32201 c -23,-14 -10,-46 18,-46 20,0 25,5 25,25 0,26 -20,36 -43,21 z"
       id="path116"
       inkscape:connector-curvature="0"
       style="stroke-width:0.33922976" />
  </g>
</svg>
