<!-- <svg
            width="900"
            height="900"
            viewBox="0 0 200 200"
            xmlns="http://www.w3.org/2000/svg"
          >
            <path
              fill="#FF0066"
              d="M33.1,-25.9C46,-10.2,61.9,3.8,60.3,15C58.7,26.2,39.7,34.6,22.2,41C4.8,47.4,-11.1,51.8,-23.5,46.6C-35.8,41.5,-44.5,26.8,-49.3,10C-54.2,-6.8,-55.1,-25.8,-46.2,-40.6C-37.4,-55.4,-18.7,-66.1,-4.3,-62.6C10.1,-59.2,20.1,-41.6,33.1,-25.9Z"
              transform="translate(100 100)"
            />
          </svg> -->


          <svg width="900"
            height="900"
            viewBox="0 0 200 200" xmlns="http://www.w3.org/2000/svg">
  <path fill="#FF0066" d="M25.8,-31.9C40.9,-30.4,65.6,-35.9,77.2,-29.7C88.7,-23.5,86.9,-5.6,80.8,9C74.6,23.7,64.2,35.1,52.2,40.8C40.3,46.5,27,46.5,16.4,44.1C5.9,41.8,-1.8,37.2,-15.4,39.3C-29,41.3,-48.5,50.1,-55.7,46C-63,41.8,-57.9,24.7,-49.3,13.6C-40.7,2.6,-28.6,-2.5,-27,-14.9C-25.3,-27.4,-34.2,-47.2,-31.5,-54.4C-28.7,-61.5,-14.4,-55.9,-4.5,-48.9C5.4,-41.9,10.7,-33.5,25.8,-31.9Z" transform="translate(100 100)" />
</svg>

